<?xml version="1.0" standalone="no"?>
<!DOCTYPE svg PUBLIC "-//W3C//DTD SVG 20010904//EN"
 "http://www.w3.org/TR/2001/REC-SVG-20010904/DTD/svg10.dtd">
<svg version="1.0" xmlns="http://www.w3.org/2000/svg"
 width="1080.000000pt" height="1080.000000pt" viewBox="0 0 1080.000000 1080.000000"
 preserveAspectRatio="xMidYMid meet">

<g transform="translate(0.000000,1080.000000) scale(0.100000,-0.100000)"
fill="#000000" stroke="none">
<path d="M4911 9842 c-23 -15 -48 -38 -57 -50 l-15 -22 -37 29 c-20 17 -49 33
-63 36 -45 11 -109 -33 -142 -98 -8 -16 -43 -47 -78 -70 -43 -28 -64 -48 -64
-62 0 -18 8 -20 68 -23 l67 -3 0 -38 0 -38 -40 19 c-24 12 -47 17 -61 13 -30
-10 -95 -70 -108 -103 -7 -16 -38 -43 -77 -67 -47 -29 -64 -46 -64 -61 0 -27
17 -34 86 -34 l54 0 0 -34 0 -34 -38 20 c-26 15 -46 19 -64 15 -36 -9 -85 -52
-106 -93 -10 -20 -43 -51 -82 -76 -44 -29 -65 -49 -65 -63 0 -18 8 -20 68 -23
l67 -3 0 -153 0 -154 -24 -6 c-13 -3 -26 -12 -29 -20 -3 -8 26 -64 67 -128
l74 -113 -41 -12 c-89 -26 -92 -109 -5 -142 14 -5 54 -29 87 -53 l60 -43 1
-427 0 -427 -22 -3 c-22 -3 -23 -7 -28 -138 l-5 -135 -58 -3 -58 -3 3 -57 3
-57 58 -3 57 -3 0 -109 0 -109 -57 -3 -58 -3 -3 -57 -3 -57 58 -3 58 -3 3
-112 3 -112 -58 -3 -58 -3 0 -55 0 -55 58 -3 57 -3 0 -143 0 -144 -34 -51
c-53 -79 -78 -156 -101 -313 -6 -37 -7 -38 -46 -38 -66 0 -64 -38 8 -116 l33
-37 0 -388 0 -389 -59 0 c-39 0 -63 -5 -71 -15 -13 -16 -10 -23 38 -82 26 -33
41 -43 63 -43 l29 0 0 -480 0 -480 -64 0 c-88 0 -91 -17 -23 -103 22 -27 38
-37 59 -37 l28 0 0 -111 0 -111 -27 34 c-33 40 -53 55 -112 88 -47 26 -91 86
-91 126 0 11 -6 29 -14 40 -21 28 -46 8 -61 -48 -17 -68 -40 -96 -102 -125
-62 -29 -118 -93 -161 -181 -22 -44 -37 -59 -94 -93 -37 -22 -68 -46 -68 -52
0 -25 24 -37 72 -37 l48 0 0 -120 0 -120 -687 -2 -688 -3 -3 -272 -2 -273
-249 0 -249 0 -34 -42 c-48 -60 -51 -67 -38 -83 8 -10 31 -15 66 -15 l54 0 0
-395 0 -395 -51 -101 c-40 -80 -48 -104 -38 -115 10 -12 483 -14 3345 -14
3239 0 3333 1 3339 19 3 11 -11 50 -40 102 l-45 84 0 407 0 407 51 3 c77 4 84
24 32 85 l-40 48 -251 3 -252 2 -2 273 -3 272 -685 5 -685 5 -3 117 -3 117 58
3 c54 3 58 5 58 28 0 20 -12 32 -61 60 -51 29 -66 44 -96 100 -52 94 -103 149
-166 177 -46 20 -56 30 -77 76 -14 28 -25 59 -25 68 0 22 -26 43 -44 36 -7 -3
-17 -23 -21 -44 -12 -67 -43 -110 -100 -137 -29 -13 -70 -45 -93 -71 l-42 -48
0 112 0 111 29 0 c23 0 38 11 71 52 56 71 51 82 -33 86 l-67 3 0 479 0 480 33
0 c27 1 39 9 71 52 51 66 43 82 -43 86 l-61 3 0 394 c0 248 4 395 10 395 5 0
28 24 50 54 49 65 46 86 -14 86 l-42 0 -12 83 c-15 107 -46 196 -88 259 l-34
50 0 149 0 149 55 0 55 0 0 60 0 60 -55 0 -55 0 0 115 0 115 55 0 56 0 -3 58
-3 57 -52 3 -53 3 0 109 0 109 53 3 52 3 3 58 3 57 -56 0 -55 0 0 124 c0 68
-3 131 -6 140 -3 9 -17 16 -30 16 l-24 0 0 425 0 425 68 49 c37 28 74 50 83
51 31 0 62 35 62 68 0 40 -26 70 -69 78 -19 3 -34 8 -34 11 0 3 32 54 71 114
41 63 69 115 66 124 -4 8 -18 17 -32 21 l-25 6 0 154 0 153 68 3 c59 3 67 5
70 24 2 16 -11 29 -58 58 -35 22 -71 54 -84 75 -29 45 -79 89 -111 97 -14 3
-38 -1 -56 -10 -44 -22 -49 -20 -49 14 l0 30 63 0 c62 0 87 11 87 37 0 7 -29
31 -63 53 -45 28 -73 55 -95 90 -22 35 -44 56 -76 71 l-44 22 -41 -21 -41 -22
0 40 0 39 68 3 c58 3 67 6 70 23 2 15 -13 30 -59 59 -33 22 -68 51 -77 65 -44
72 -107 117 -148 107 -13 -4 -40 -20 -59 -38 l-36 -31 -16 22 c-23 33 -93 81
-118 81 -12 0 -41 -13 -64 -28z m105 -64 c20 -18 45 -52 55 -76 24 -54 43 -53
78 6 14 23 36 49 48 58 20 13 25 13 48 -2 15 -9 35 -34 45 -55 11 -21 30 -45
42 -53 l22 -16 -21 0 c-12 0 -25 -4 -28 -10 -10 -17 -635 -13 -675 4 -32 13
-33 14 -12 25 12 6 22 18 22 26 0 16 45 72 70 85 24 13 64 -19 90 -71 28 -54
52 -52 74 6 16 39 76 105 98 105 4 0 24 -14 44 -32z m274 -292 c0 -66 4 -117
10 -121 6 -4 10 -87 10 -218 l0 -211 27 -28 27 -28 -394 0 -394 0 27 28 27 28
0 211 c0 131 4 214 10 218 6 4 10 53 10 114 0 59 3 111 7 114 3 4 147 7 320 7
l313 0 0 -114z m-738 -43 c30 -33 58 -88 58 -115 0 -16 -9 -18 -84 -18 -47 0
-88 5 -91 10 -3 6 -18 10 -33 10 l-27 1 21 18 c12 9 31 36 43 59 34 67 72 79
113 35z m925 5 c11 -13 28 -38 37 -56 10 -18 24 -36 32 -39 23 -8 16 -23 -10
-23 -14 0 -28 -4 -31 -10 -3 -5 -44 -10 -91 -10 -77 0 -84 2 -84 19 0 46 71
141 105 141 12 0 31 -10 42 -22z m-867 -329 l0 -172 -35 -38 c-30 -34 -35 -46
-35 -89 l0 -50 430 0 430 0 0 53 c0 48 -4 57 -35 87 l-35 34 0 173 0 173 85 0
85 0 0 -104 c0 -59 4 -108 10 -111 6 -4 10 -88 10 -221 l0 -214 -550 0 -550 0
0 209 c0 129 4 212 10 216 6 4 10 53 10 116 l0 109 85 0 85 0 0 -171z m-269
24 c24 -28 59 -92 59 -109 0 -11 -18 -14 -89 -14 -50 0 -93 5 -96 10 -3 6 -16
10 -28 10 l-22 0 21 18 c12 9 25 27 28 39 4 12 23 36 42 52 37 33 53 32 85 -6z
m1335 20 c14 -9 34 -33 45 -55 11 -21 28 -43 39 -50 17 -11 16 -13 -18 -25
-20 -7 -74 -13 -119 -13 -75 0 -83 2 -83 19 0 10 7 24 15 31 8 7 15 18 15 26
0 13 62 84 74 84 4 0 18 -7 32 -17z m-1276 -343 l0 -181 -87 3 -88 3 -3 165
c-1 90 0 170 2 177 4 9 30 13 91 13 l85 0 0 -180z m1318 3 l-3 -178 -85 0 -85
0 -3 165 c-1 90 0 170 2 177 4 9 30 13 91 13 l85 0 -2 -177z m-338 2 l0 -35
-410 0 -410 0 0 35 0 35 410 0 410 0 0 -35z m351 -211 c16 -14 13 -22 -54
-125 l-71 -109 -635 0 -636 0 -65 102 c-79 124 -76 116 -54 133 16 12 139 14
758 15 658 0 741 -2 757 -16z m-126 -263 c6 -6 37 -11 69 -13 36 -2 61 -8 64
-15 2 -8 -5 -13 -17 -13 -11 0 -23 -4 -26 -10 -4 -7 -252 -10 -712 -10 -675 0
-748 3 -783 28 -13 9 31 22 77 22 28 0 55 5 58 10 8 13 1257 14 1270 1z m35
-85 c0 -2 -25 -22 -55 -45 l-56 -41 -556 0 -555 0 -52 37 c-28 20 -55 40 -60
45 -6 4 292 8 662 8 370 0 672 -2 672 -4z m-110 -546 l0 -440 -560 0 -560 0 0
440 0 440 560 0 560 0 0 -440z m-860 -1002 l0 -543 -35 -28 c-19 -15 -42 -41
-51 -58 -15 -30 -15 -32 20 -76 l36 -46 0 -139 0 -138 335 0 335 0 0 141 0
141 31 43 31 43 -18 37 c-10 21 -33 47 -51 57 l-33 20 0 544 0 544 128 0 c81
0 138 -5 155 -12 l27 -13 0 -662 0 -663 -48 0 c-41 0 -51 -4 -69 -28 -58 -78
-96 -190 -109 -314 l-7 -68 -378 0 -379 0 0 40 c0 56 -27 181 -50 236 -11 25
-33 65 -50 89 -30 43 -33 45 -80 45 l-50 0 0 663 0 663 28 11 c15 6 84 11 155
12 l127 1 0 -542z m590 2 l0 -540 -39 0 -40 0 -3 53 -3 52 -57 3 -58 3 0 60 0
60 -87 -3 -88 -3 -3 -57 -3 -58 -54 0 -55 0 0 -55 0 -55 -40 0 -40 0 0 540 0
540 285 0 285 0 0 -540z m-962 242 l3 -43 -48 3 c-44 3 -48 5 -51 31 -6 49 3
58 50 55 43 -3 43 -3 46 -46z m1440 1 l3 -43 -45 0 -46 0 0 46 0 45 43 -3 c42
-3 42 -3 45 -45z m-1438 -343 l0 -40 -50 0 -50 0 0 40 0 40 50 0 50 0 0 -40z
m1440 0 l0 -40 -45 0 -45 0 0 40 0 40 45 0 45 0 0 -40z m-698 -287 l3 -58 58
-3 57 -3 0 -54 0 -55 45 0 c26 0 59 -7 75 -15 27 -14 60 -51 60 -67 0 -5 -166
-8 -370 -8 -203 0 -370 4 -370 9 0 15 49 61 75 71 15 6 46 10 71 10 l44 0 0
55 0 55 55 0 55 0 0 60 0 60 70 0 69 0 3 -57z m-742 -63 l0 -40 -50 0 -50 0 0
40 0 40 50 0 50 0 0 -40z m1440 0 l0 -40 -45 0 -45 0 0 40 0 40 45 0 45 0 0
-40z m-420 -250 l-21 -30 -329 0 -328 0 -16 25 c-9 13 -16 27 -16 30 0 3 165
5 366 5 l365 0 -21 -30z m-30 -180 l0 -130 -320 0 -320 0 0 123 c0 68 3 127 7
130 3 4 147 7 320 7 l313 0 0 -130z m-828 33 c50 -56 108 -232 108 -325 l0
-48 -169 0 c-94 0 -172 3 -174 8 -9 14 14 155 34 215 11 34 36 85 56 114 34
52 36 53 82 53 33 0 53 -5 63 -17z m1151 -15 c55 -74 89 -171 103 -295 l7 -63
-178 0 -178 0 7 68 c11 115 43 213 93 285 24 34 30 37 74 37 42 0 51 -4 72
-32z m112 -387 c6 -5 21 -11 35 -13 23 -4 23 -5 5 -12 -11 -4 -28 -12 -37 -17
-24 -12 -1492 -12 -1516 0 -9 5 -26 13 -37 17 -18 7 -18 8 5 12 14 2 29 8 35
13 12 12 1498 12 1510 0z m-5 -111 l0 -40 -747 2 -748 3 -3 38 -3 37 750 0
751 0 0 -40z m-1150 -136 c0 -72 2 -80 35 -125 l35 -49 0 -240 0 -240 -210 0
-210 0 0 365 0 365 175 0 175 0 0 -76z m780 1 c0 -70 -3 -79 -35 -126 l-35
-51 0 -239 0 -239 -310 0 -310 0 0 243 0 242 -35 49 c-32 46 -35 55 -35 123
l0 73 380 0 380 0 0 -75z m370 -290 l0 -365 -210 0 -210 0 0 238 0 237 35 49
c33 46 35 54 35 128 l0 78 175 0 175 0 0 -365z m5 -395 c3 -5 26 -10 51 -10
24 0 44 -4 44 -10 0 -5 -20 -10 -44 -10 -25 0 -48 -4 -51 -10 -4 -7 -267 -10
-755 -10 -488 0 -751 3 -755 10 -3 6 -24 10 -45 10 -21 0 -42 5 -45 10 -4 6
11 10 39 10 25 0 48 5 51 10 4 7 267 10 755 10 488 0 751 -3 755 -10z m-1175
-160 c0 -77 4 -98 25 -140 l25 -50 -2 -357 -3 -358 -185 0 -185 0 -3 485 c-1
267 0 491 3 498 3 9 46 12 165 12 l160 0 0 -90z m820 0 c0 -71 -4 -99 -20
-130 -19 -37 -20 -59 -20 -410 l0 -370 -357 2 -358 3 -5 380 c-4 337 -7 384
-22 412 -13 23 -18 55 -18 118 l0 85 400 0 400 0 0 -90z m350 -410 l0 -500
-185 0 -185 0 0 370 c0 351 1 373 20 410 16 31 20 59 20 130 l0 90 165 0 165
0 0 -500z m52 -535 c56 -8 54 -25 -2 -25 -21 0 -42 -4 -45 -10 -4 -7 -267 -10
-755 -10 -488 0 -751 3 -755 10 -3 6 -24 10 -45 10 -21 0 -42 5 -45 10 -4 6
11 10 39 10 25 0 48 5 51 10 7 12 1480 7 1557 -5z m-52 -302 l0 -238 48 -25
47 -25 0 -100 0 -100 -160 -5 -160 -5 -3 -272 -2 -273 -94 0 -93 0 -17 43
c-14 37 -16 100 -16 490 l0 447 44 0 c41 0 48 4 82 45 20 25 35 48 32 50 -3 3
-211 4 -462 3 l-458 -3 37 -47 c34 -46 38 -48 85 -48 l50 0 0 -439 c0 -425 -1
-440 -21 -490 l-22 -51 -93 0 -94 0 -2 273 -3 272 -157 3 -158 3 0 102 0 103
45 22 45 22 0 240 0 240 750 0 750 0 0 -237z m-1724 60 c30 -14 66 -40 81 -57
l26 -31 -101 -3 c-55 -1 -149 -1 -208 0 l-107 3 28 33 c15 18 51 44 81 58 29
14 63 39 75 56 l22 30 25 -32 c13 -17 49 -43 78 -57z m2087 51 c17 -21 48 -43
67 -51 35 -15 100 -70 100 -85 0 -4 -90 -8 -200 -8 -110 0 -200 4 -200 8 0 15
64 70 106 91 23 11 53 34 65 50 13 16 25 30 27 30 1 1 17 -15 35 -35z m-693
-101 c-1 -5 -9 -18 -19 -30 l-19 -23 -380 0 c-348 0 -380 1 -394 18 -38 43
-51 42 391 42 232 0 421 -3 421 -7z m-1250 -104 c13 -25 20 -54 18 -77 l-3
-37 -268 -3 c-219 -2 -272 0 -289 12 l-20 14 21 11 c12 7 21 17 21 23 0 6 11
31 25 55 l26 43 224 0 225 0 20 -41z m2165 -19 c15 -32 35 -62 43 -65 13 -5
12 -8 -6 -21 -17 -12 -65 -14 -289 -12 l-268 3 -3 35 c-3 23 4 50 19 78 l24
42 225 0 226 0 29 -60z m-1525 -390 l0 -440 -40 0 -40 0 0 440 0 440 40 0 40
0 0 -440z m100 434 c0 -3 -9 -19 -20 -34 -11 -16 -29 -48 -40 -72 l-20 -43 0
78 0 77 40 0 c22 0 40 -3 40 -6z m190 -50 c72 -119 74 -133 78 -494 3 -304 2
-329 -16 -375 l-20 -50 -139 -3 -140 -3 -17 44 c-14 36 -16 91 -16 374 0 373
5 407 75 511 l36 52 62 0 63 0 34 -56z m80 -19 c0 -41 -2 -75 -5 -75 -3 0 -14
19 -25 43 -10 23 -29 57 -40 75 l-22 32 46 0 46 0 0 -75z m100 -365 l0 -440
-45 0 -45 0 0 440 1 440 44 0 45 0 0 -440z m-1167 262 c-8 -5 -13 -49 -15
-137 l-3 -130 -225 0 -225 0 -3 138 -3 137 243 0 c134 0 238 -4 231 -8z m2247
-132 l0 -140 -225 0 -225 0 0 124 c0 100 -3 128 -16 140 -14 15 6 16 225 16
l241 0 0 -140z m-2097 -175 l157 -6 0 -49 0 -50 -1080 0 -1080 0 0 50 0 50
678 0 c429 0 682 4 692 10 15 10 274 8 633 -5z m2112 5 c4 -7 243 -10 686 -10
l679 0 0 -50 0 -50 -1080 0 -1080 0 0 50 0 50 154 0 c93 0 157 4 161 10 4 6
95 10 240 10 145 0 236 -4 240 -10z m-4035 -325 l0 -195 -40 0 -40 0 0 195 0
195 40 0 40 0 0 -195z m300 0 l0 -195 -140 0 -140 0 0 195 0 195 140 0 140 0
0 -195z m120 0 l0 -195 -50 0 -50 0 0 195 0 195 50 0 50 0 0 -195z m300 0 l0
-195 -140 0 -140 0 0 195 0 195 140 0 140 0 0 -195z m120 0 l0 -195 -50 0 -50
0 0 195 0 195 50 0 50 0 0 -195z m300 0 l0 -195 -140 0 -140 0 0 195 0 195
140 0 140 0 0 -195z m120 0 l0 -195 -50 0 -50 0 0 195 0 195 50 0 50 0 0 -195z
m300 0 l0 -195 -140 0 -140 0 0 195 0 195 140 0 140 0 0 -195z m120 0 l0 -195
-50 0 -50 0 0 195 0 195 50 0 50 0 0 -195z m300 0 l0 -195 -140 0 -140 0 0
195 0 195 140 0 140 0 0 -195z m100 0 l0 -195 -40 0 -40 0 0 195 0 195 40 0
40 0 0 -195z m1240 0 l0 -195 -40 0 -40 0 0 195 0 195 40 0 40 0 0 -195z m300
0 l0 -195 -140 0 -140 0 0 195 0 195 140 0 140 0 0 -195z m120 0 l0 -195 -50
0 -50 0 0 195 0 195 50 0 50 0 0 -195z m300 0 l0 -195 -140 0 -140 0 0 195 0
195 140 0 140 0 0 -195z m120 0 l0 -195 -50 0 -50 0 0 195 0 195 50 0 50 0 0
-195z m300 0 l0 -195 -140 0 -140 0 0 195 0 195 140 0 140 0 0 -195z m120 0
l0 -195 -50 0 -50 0 0 195 0 195 50 0 50 0 0 -195z m300 0 l0 -195 -140 0
-140 0 0 195 0 195 140 0 140 0 0 -195z m120 0 l0 -195 -50 0 -50 0 0 195 0
195 50 0 50 0 0 -195z m300 0 l0 -195 -140 0 -140 0 0 195 0 195 140 0 140 0
0 -195z m100 0 l0 -195 -40 0 -40 0 0 195 0 195 40 0 40 0 0 -195z m-2915
-131 c8 -20 15 -38 15 -40 0 -2 -34 -4 -75 -4 -55 0 -73 3 -70 13 24 69 22 67
70 67 42 0 46 -2 60 -36z m471 0 c8 -20 13 -38 11 -41 -3 -2 -36 -3 -75 -1
l-70 3 15 38 c14 35 18 37 60 37 41 0 45 -2 59 -36z m-866 -94 c0 -14 1136
-14 1145 0 4 7 377 10 1085 10 708 0 1081 -3 1085 -10 4 -6 103 -10 265 -10
162 0 261 -4 265 -10 4 -6 -8 -10 -29 -10 -19 0 -38 -4 -41 -10 -9 -14 -6391
-14 -6400 0 -3 6 -22 10 -41 10 -19 0 -34 5 -34 10 0 6 93 10 259 10 163 0
262 4 266 10 9 14 2175 14 2175 0z m-2210 -480 l0 -410 -40 -80 -40 -80 -200
0 c-110 0 -200 2 -200 5 0 3 16 37 35 75 l35 70 0 415 0 415 205 0 205 0 0
-410z m450 0 l0 -410 -40 -80 -40 -80 -215 0 -215 0 40 80 40 80 0 410 0 410
215 0 215 0 0 -410z m1170 195 l0 -215 -60 0 -60 0 -45 -57 c-25 -32 -45 -61
-45 -65 0 -5 47 -8 105 -8 l105 0 0 -210 0 -210 -610 0 c-420 0 -610 3 -610
11 0 5 16 40 35 78 l35 67 0 412 0 412 575 0 575 0 0 -215z m320 0 l0 -215
-150 0 -150 0 0 215 0 215 150 0 150 0 0 -215z m1670 170 l0 -45 -825 0 -825
0 0 45 0 45 825 0 825 0 0 -45z m310 -170 l0 -215 -145 0 -145 0 0 215 0 215
145 0 145 0 0 -215z m1180 -205 l0 -420 35 -70 35 -70 -615 0 -615 0 2 208 3
207 107 5 107 5 -47 62 -47 62 -62 1 -63 0 0 215 0 215 580 0 580 0 0 -420z
m450 0 l0 -420 35 -70 35 -70 -212 0 -213 0 -37 70 -38 69 0 421 0 420 215 0
215 0 0 -420z m430 0 l0 -420 35 -70 35 -70 -203 0 -203 0 -37 75 -37 75 0
415 0 415 205 0 205 0 0 -420z m-2370 265 l0 -45 -825 0 -825 0 0 45 0 45 825
0 825 0 0 -45z m-2 -117 l3 -48 -825 0 -826 0 0 50 0 50 823 -2 822 -3 3 -47z
m2 -113 l0 -45 -825 0 -825 0 0 45 0 45 825 0 825 0 0 -45z m-1510 -105 c18
-23 31 -42 29 -44 -7 -6 -689 -15 -689 -9 0 3 16 26 36 49 l35 44 279 0 278 0
32 -40z m1360 34 c0 -4 -16 -27 -36 -50 l-35 -44 -609 0 -608 0 -29 38 c-17
20 -33 43 -37 50 -6 9 132 12 673 12 375 0 681 -3 681 -6z m629 -40 c18 -25
31 -47 29 -49 -2 -2 -158 -1 -346 3 l-343 7 33 43 32 42 281 0 282 0 32 -46z
m-2151 -276 l2 -208 -150 0 -150 0 0 203 c0 112 3 207 7 211 4 3 70 5 147 4
l141 -3 3 -207z m1670 160 l3 -48 -825 0 -826 0 0 50 0 50 823 -2 822 -3 3
-47z m312 -158 l0 -210 -145 0 -145 0 0 210 0 210 145 0 145 0 0 -210z m-310
45 l0 -45 -825 0 -825 0 0 45 0 45 825 0 825 0 0 -45z m-2 -112 l-3 -48 -822
-3 -823 -2 0 50 0 50 826 0 825 0 -3 -47z m2 -108 l0 -35 -825 0 -825 0 0 35
0 35 825 0 825 0 0 -35z"/>
<path d="M4720 9275 l0 -155 253 2 252 3 3 153 3 152 -256 0 -255 0 0 -155z
m490 0 l0 -135 -235 0 -235 0 0 135 0 135 235 0 235 0 0 -135z"/>
<path d="M4922 8084 c-13 -9 -27 -27 -32 -40 -7 -18 -17 -24 -39 -24 -29 0
-30 -2 -33 -52 -2 -29 -2 -108 0 -175 l3 -123 155 0 154 0 0 175 0 175 -34 0
c-26 0 -36 5 -41 20 -9 28 -53 60 -84 60 -15 0 -37 -7 -49 -16z m88 -14 c10
-5 23 -23 28 -40 9 -25 17 -30 41 -30 29 0 31 -3 31 -35 l0 -35 -140 0 -140 0
0 35 c0 33 2 35 35 35 23 0 35 5 35 14 0 7 9 25 21 40 21 27 56 34 89 16z
m100 -270 l0 -110 -140 0 -140 0 0 103 c0 57 3 107 7 110 3 4 66 7 140 7 l133
0 0 -110z"/>
<path d="M4477 8083 c-12 -11 -8 -723 3 -723 6 0 10 128 10 365 0 201 -1 365
-3 365 -2 0 -7 -3 -10 -7z"/>
<path d="M4597 8083 c-12 -11 -8 -723 3 -723 6 0 10 128 10 365 0 201 -1 365
-3 365 -2 0 -7 -3 -10 -7z"/>
<path d="M4717 8083 c-12 -11 -8 -723 3 -723 6 0 10 128 10 365 0 201 -1 365
-3 365 -2 0 -7 -3 -10 -7z"/>
<path d="M5210 7725 c0 -237 4 -365 10 -365 6 0 10 128 10 365 0 237 -4 365
-10 365 -6 0 -10 -128 -10 -365z"/>
<path d="M5337 8083 c-12 -11 -8 -723 3 -723 6 0 10 128 10 365 0 201 -1 365
-3 365 -2 0 -7 -3 -10 -7z"/>
<path d="M5457 8083 c-12 -11 -8 -723 3 -723 6 0 10 128 10 365 0 201 -1 365
-3 365 -2 0 -7 -3 -10 -7z"/>
<path d="M4430 6960 l0 -61 73 3 72 3 3 58 3 57 -76 0 -75 0 0 -60z m130 5 l0
-45 -55 0 -55 0 0 45 0 45 55 0 55 0 0 -45z"/>
<path d="M5362 6963 l3 -58 75 0 75 0 3 58 3 57 -81 0 -81 0 3 -57z m136 0 l3
-43 -60 0 -61 0 0 38 c0 21 3 42 7 46 4 4 30 6 58 4 l50 -3 3 -42z"/>
<path d="M4430 6620 l0 -60 75 0 76 0 -3 58 -3 57 -72 3 -73 3 0 -61z m130 0
l0 -40 -55 0 -55 0 0 40 0 40 55 0 55 0 0 -40z"/>
<path d="M5367 6674 c-4 -4 -7 -31 -7 -61 l0 -53 80 0 81 0 -3 58 -3 57 -70 3
c-39 1 -74 0 -78 -4z m133 -54 l0 -40 -60 0 -60 0 0 40 0 40 60 0 60 0 0 -40z"/>
<path d="M4430 6270 l0 -60 75 0 75 0 0 60 0 60 -75 0 -75 0 0 -60z m130 0 l0
-40 -55 0 -55 0 0 40 0 40 55 0 55 0 0 -40z"/>
<path d="M5367 6324 c-4 -4 -7 -31 -7 -61 l0 -53 80 0 81 0 -3 58 -3 57 -70 3
c-39 1 -74 0 -78 -4z m133 -54 l0 -40 -60 0 -60 0 0 40 0 40 60 0 60 0 0 -40z"/>
<path d="M4943 7180 c-12 -5 -32 -23 -44 -39 -16 -22 -31 -31 -51 -31 l-28 0
0 -180 0 -181 153 3 152 3 0 175 0 175 -31 3 c-22 2 -36 11 -45 29 -11 20 -66
56 -81 52 -2 0 -13 -4 -25 -9z m80 -42 c9 -11 17 -26 17 -34 0 -9 12 -14 35
-14 34 0 35 -1 35 -40 l0 -40 -141 0 -140 0 3 38 c3 33 6 37 33 40 22 2 34 11
43 31 23 51 78 61 115 19z m87 -258 l0 -111 -137 3 -138 3 -3 108 -3 107 141
0 140 0 0 -110z"/>
<path d="M4800 4895 l0 -225 170 0 170 0 0 225 0 225 -170 0 -170 0 0 -225z
m320 0 l0 -205 -150 0 -150 0 0 205 0 205 150 0 150 0 0 -205z"/>
<path d="M4947 4271 c-17 -29 -71 -61 -102 -61 -41 0 -110 -59 -128 -112 -4
-10 7 -34 29 -62 l34 -45 0 -196 0 -195 193 2 192 3 3 199 2 199 31 39 c29 35
30 41 19 68 -16 38 -72 88 -108 95 -50 11 -91 34 -113 65 -13 16 -25 30 -29
30 -3 0 -13 -13 -23 -29z m53 -36 c13 -14 42 -30 64 -36 75 -20 96 -31 116
-59 11 -16 20 -33 20 -39 0 -8 -70 -11 -230 -11 -163 0 -230 3 -230 11 0 6 17
28 38 49 26 26 49 39 79 44 27 4 55 17 75 36 18 16 36 30 39 30 3 0 16 -11 29
-25z m190 -172 c-1 -5 -9 -18 -19 -30 -19 -22 -25 -23 -199 -23 -158 0 -181 2
-194 18 -37 43 -40 42 191 42 122 0 221 -3 221 -7z m-40 -258 l0 -185 -177 2
-178 3 -3 183 -2 182 180 0 180 0 0 -185z"/>
<path d="M1835 1530 c4 -6 58 -10 131 -10 76 0 124 4 124 10 0 6 -50 10 -131
10 -84 0 -128 -4 -124 -10z"/>
<path d="M1835 1410 c4 -6 58 -10 131 -10 76 0 124 4 124 10 0 6 -50 10 -131
10 -84 0 -128 -4 -124 -10z"/>
<path d="M2285 1530 c4 -6 58 -10 131 -10 76 0 124 4 124 10 0 6 -50 10 -131
10 -84 0 -128 -4 -124 -10z"/>
<path d="M2285 1410 c4 -6 58 -10 131 -10 76 0 124 4 124 10 0 6 -50 10 -131
10 -84 0 -128 -4 -124 -10z"/>
<path d="M2750 1530 c0 -6 130 -10 369 -10 236 0 372 4 376 10 4 7 -122 10
-369 10 -244 0 -376 -4 -376 -10z"/>
<path d="M2750 1410 c0 -6 132 -10 375 -10 243 0 375 4 375 10 0 6 -132 10
-375 10 -243 0 -375 -4 -375 -10z"/>
<path d="M6445 1530 c4 -6 140 -10 376 -10 239 0 369 4 369 10 0 6 -132 10
-376 10 -247 0 -373 -3 -369 -10z"/>
<path d="M6445 1410 c4 -6 140 -10 376 -10 239 0 369 4 369 10 0 6 -132 10
-376 10 -247 0 -373 -3 -369 -10z"/>
<path d="M7405 1530 c4 -6 57 -10 125 -10 68 0 121 4 125 10 4 6 -40 10 -125
10 -85 0 -129 -4 -125 -10z"/>
<path d="M7400 1410 c0 -6 50 -10 130 -10 80 0 130 4 130 10 0 6 -50 10 -130
10 -80 0 -130 -4 -130 -10z"/>
<path d="M7855 1530 c4 -6 57 -10 125 -10 68 0 121 4 125 10 4 6 -40 10 -125
10 -85 0 -129 -4 -125 -10z"/>
<path d="M7850 1410 c0 -6 50 -10 130 -10 80 0 130 4 130 10 0 6 -50 10 -130
10 -80 0 -130 -4 -130 -10z"/>
</g>
</svg>
