<?xml version="1.0" standalone="no"?>
<!DOCTYPE svg PUBLIC "-//W3C//DTD SVG 20010904//EN"
 "http://www.w3.org/TR/2001/REC-SVG-20010904/DTD/svg10.dtd">
<svg version="1.0" xmlns="http://www.w3.org/2000/svg"
 width="1080.000000pt" height="1080.000000pt" viewBox="0 0 1080.000000 1080.000000"
 preserveAspectRatio="xMidYMid meet">

<g transform="translate(0.000000,1080.000000) scale(0.100000,-0.100000)"
fill="#000000" stroke="none">
<path d="M5390 7590 c0 -162 2 -190 15 -190 13 0 15 26 15 174 0 96 -3 181 -6
190 -17 46 -24 -2 -24 -174z"/>
<path d="M5220 7289 c-25 -17 -65 -48 -90 -68 -68 -57 -76 -59 -50 -14 24 44
24 70 -2 86 -22 14 -37 6 -184 -104 -307 -230 -599 -520 -846 -839 -69 -90
-203 -285 -240 -351 -12 -21 -25 -39 -28 -39 -4 0 -6 42 -6 93 1 92 1 92 -25
95 -32 4 -200 -92 -361 -205 -537 -377 -886 -842 -1122 -1495 -10 -27 -21 -48
-24 -48 -4 0 -59 11 -122 24 -115 24 -309 50 -472 62 -91 7 -118 -1 -118 -33
0 -9 31 -50 68 -92 135 -151 247 -304 346 -473 31 -53 56 -99 56 -102 0 -3
-10 -6 -22 -6 -42 0 -53 -16 -58 -86 l-5 -66 -47 -2 c-26 -1 -51 -5 -55 -10
-4 -4 -10 -35 -13 -69 l-5 -62 -55 -3 c-30 -2 -60 -8 -67 -14 -18 -15 -19
-418 -1 -436 9 -9 852 -12 3731 -12 3531 0 3720 1 3733 18 10 13 13 66 14 214
0 229 0 228 -86 228 l-54 0 0 59 c0 70 -13 85 -79 87 l-46 2 -3 63 c-3 69 -16
89 -60 89 l-24 0 32 58 c103 181 298 449 404 552 51 49 54 59 26 85 -17 15
-31 17 -107 11 -159 -13 -346 -37 -467 -62 -65 -13 -122 -24 -126 -24 -4 0
-12 19 -19 43 -27 90 -116 298 -184 432 -140 274 -323 520 -553 746 -151 148
-274 247 -457 368 -302 201 -336 206 -319 49 8 -75 6 -112 -5 -81 -2 7 -53 86
-113 175 -276 415 -617 773 -1025 1077 -117 87 -146 101 -170 81 -21 -17 -19
-34 10 -80 14 -22 22 -40 19 -40 -3 0 -27 17 -53 39 -25 21 -72 55 -103 75
-66 44 -95 42 -105 -5 -8 -41 -16 -43 -42 -9 -28 39 -54 38 -82 -2 l-23 -31
-9 29 c-21 64 -41 68 -107 23z m43 -140 c4 -29 14 -60 23 -70 24 -27 44 -231
69 -724 15 -306 35 -1122 34 -1385 -1 -164 3 -168 -56 50 -78 285 -242 628
-432 905 -68 99 -191 255 -202 255 -4 0 -49 -47 -100 -105 -50 -58 -93 -104
-95 -102 -7 6 53 206 100 340 72 202 134 338 173 377 19 19 62 77 95 128 33
51 99 134 146 184 93 97 208 198 228 198 6 0 14 -22 17 -51z m359 9 c127 -99
279 -274 363 -417 20 -34 43 -61 51 -61 29 0 167 -343 239 -594 34 -121 32
-130 -17 -71 -24 28 -67 76 -97 108 -65 69 -54 74 -176 -88 -249 -328 -423
-684 -535 -1090 l-30 -110 5 555 c5 636 24 1089 61 1505 13 142 19 173 35 188
10 10 19 30 19 45 0 36 10 72 20 72 5 0 32 -19 62 -42z m-178 -40 c33 -52 34
-55 26 -118 -20 -158 -60 -816 -60 -997 0 -35 -4 -63 -8 -63 -5 0 -12 112 -16
250 -6 237 -24 523 -47 767 l-10 111 33 51 c18 28 36 51 40 51 4 0 23 -24 42
-52z m-557 -70 c-64 -114 -78 -139 -122 -226 -31 -62 -45 -101 -41 -115 3 -13
-6 -46 -24 -83 -72 -153 -166 -419 -216 -614 -23 -88 -35 -115 -74 -165 -305
-397 -552 -923 -671 -1430 l-24 -100 -6 75 c-11 128 -10 681 2 990 9 248 13
299 28 320 9 14 25 43 36 65 168 341 481 748 815 1060 111 104 301 265 313
265 4 0 -3 -19 -16 -42z m1153 -67 c381 -315 772 -791 969 -1178 28 -56 56
-103 61 -105 25 -9 50 -1256 26 -1343 -6 -25 -14 -3 -51 142 -125 486 -329
911 -650 1348 -43 59 -55 85 -74 165 -41 165 -136 438 -215 614 -15 32 -24 66
-21 76 6 19 -60 160 -141 301 -67 116 -68 116 96 -20z m-1266 -927 c144 -183
292 -431 393 -656 100 -223 201 -567 215 -731 l3 -39 -130 -67 c-322 -166
-666 -441 -907 -728 l-71 -84 -61 3 -61 3 1 275 c1 288 13 468 45 685 81 543
224 974 448 1348 25 42 49 77 52 77 3 0 36 -39 73 -86z m1410 -38 c231 -402
394 -955 446 -1514 19 -200 30 -503 23 -629 l-6 -123 -61 0 -61 1 -80 95
c-245 293 -639 599 -963 750 l-64 29 7 58 c8 72 38 214 70 327 99 352 306 753
540 1049 56 70 69 81 80 70 7 -8 38 -58 69 -113z m-2499 -118 c-4 -73 -9 -139
-11 -147 -2 -8 3 -25 11 -38 15 -22 15 -45 4 -221 -14 -230 -18 -967 -6 -1159
l8 -132 -153 77 c-304 153 -795 324 -835 290 -67 -56 -200 -324 -242 -488 -9
-38 -20 -72 -23 -75 -3 -3 -15 23 -28 57 -12 35 -40 105 -62 156 l-41 93 28
82 c115 344 291 672 495 922 144 178 365 386 566 533 80 58 275 182 287 182 5
0 5 -60 2 -132z m3563 57 c595 -378 987 -877 1217 -1548 l34 -97 -33 -73 c-19
-39 -46 -107 -62 -149 -16 -43 -31 -78 -35 -78 -3 0 -14 28 -24 63 -51 186
-136 363 -233 485 -17 22 -21 23 -68 12 -227 -54 -503 -157 -762 -285 -90 -45
-165 -78 -166 -75 -2 3 1 70 6 150 10 150 3 1042 -10 1227 -5 78 -4 107 6 120
13 18 11 144 -4 276 -4 32 -2 47 6 47 6 0 64 -34 128 -75z m-883 -115 c309
-407 534 -871 658 -1360 39 -152 62 -290 51 -304 -5 -7 -46 -58 -92 -112 -86
-102 -153 -198 -191 -271 -20 -41 -24 -43 -66 -43 l-45 0 0 203 c0 758 -133
1397 -406 1952 l-54 110 36 -40 c20 -22 69 -83 109 -135z m-1844 43 c-183
-368 -316 -849 -365 -1323 -26 -252 -27 -271 -28 -543 l0 -267 -47 0 -46 0
-37 69 c-43 80 -133 201 -218 295 -33 37 -60 68 -60 71 0 15 45 234 62 300
106 419 315 874 564 1225 87 125 217 290 226 290 4 0 -19 -53 -51 -117z m1011
-1342 c227 -114 488 -302 692 -500 114 -111 256 -267 256 -282 0 -5 -27 -9
-59 -9 -56 0 -65 4 -192 81 -320 194 -709 341 -859 326 -182 -19 -552 -174
-825 -346 -93 -58 -100 -61 -162 -61 -36 0 -63 4 -61 9 2 5 45 57 96 116 241
272 560 518 888 684 43 22 86 40 94 41 8 0 68 -27 132 -59z m-2662 -61 c155
-78 433 -252 559 -349 l24 -18 -79 -17 c-227 -49 -460 -156 -631 -290 l-72
-56 -126 0 -126 0 6 38 c30 187 78 362 132 486 39 89 114 220 145 253 23 24
29 23 168 -47z m5241 37 c58 -73 135 -226 181 -356 28 -82 74 -276 83 -348 l7
-63 -129 0 c-125 0 -130 1 -153 25 -34 36 -153 116 -250 168 -105 56 -275 120
-397 148 -51 12 -90 25 -87 30 8 13 237 169 342 233 81 50 358 195 372 196 3
0 17 -15 31 -33z m-5099 -48 c164 -54 369 -140 531 -222 150 -76 160 -83 224
-156 106 -121 233 -303 233 -334 0 -4 -25 -7 -55 -7 l-55 0 -107 108 c-212
210 -556 465 -798 590 -119 62 -112 67 27 21z m4783 -35 c-268 -149 -530 -343
-746 -551 l-137 -133 -51 0 c-35 0 -51 4 -51 13 0 38 179 284 272 374 45 43
260 157 433 229 125 51 356 133 380 133 11 1 -34 -29 -100 -65z m-5950 -49
c146 -17 308 -48 387 -73 l53 -17 42 -95 c23 -52 54 -132 69 -177 28 -81 28
-82 13 -175 l-14 -93 -140 -2 -140 -3 -50 92 c-87 160 -198 326 -314 470 -33
42 -61 79 -61 82 0 8 8 8 155 -9z m7275 10 c0 -3 -28 -39 -63 -80 -84 -98
-207 -280 -297 -437 l-72 -128 -138 0 -137 0 -17 88 c-16 87 -15 90 8 168 13
43 44 127 70 185 l47 106 52 16 c133 40 547 103 547 82z m-3632 -275 c217 -48
486 -164 729 -312 l86 -53 -446 -3 c-245 -1 -649 -1 -899 0 l-453 3 55 36
c136 89 407 221 565 275 66 22 238 69 268 73 4 1 47 -8 95 -19z m-1905 -113
c96 -82 257 -238 257 -248 0 -5 -250 -9 -555 -9 -305 0 -555 4 -555 8 0 18
159 123 265 176 183 91 450 168 498 144 10 -5 50 -37 90 -71z m3890 52 c118
-29 191 -56 312 -114 112 -54 246 -137 279 -174 l19 -21 -563 0 -562 0 34 38
c57 62 189 186 261 245 78 63 74 62 220 26z m1231 -354 c11 -8 37 -15 58 -15
l38 0 0 -45 0 -45 -1562 -2 -1563 -3 -3 -162 -2 -163 -265 0 -265 0 -2 163 -3
162 -1565 5 -1565 5 0 40 c0 40 0 40 42 43 23 2 47 10 53 18 19 22 6575 21
6604 -1z m-3594 -195 l0 -60 -1612 2 -1613 3 -3 43 -3 42 49 0 c32 0 54 5 62
15 11 13 197 15 1566 15 l1554 0 0 -60z m3704 45 c11 -8 39 -15 63 -15 l43 0
0 -45 0 -45 -1612 2 -1613 3 -3 44 c-2 24 -1 50 2 57 8 22 3092 20 3120 -1z
m-3706 -222 l3 -93 289 0 289 0 3 93 3 92 1611 3 c1424 2 1613 0 1624 -13 8
-10 31 -15 71 -15 l59 0 0 -65 0 -65 -1539 0 c-1327 0 -1540 -2 -1551 -14 -6
-9 -11 -40 -10 -73 1 -32 1 -62 1 -68 -1 -7 -193 -9 -561 -7 l-559 2 -3 78 -3
77 -1548 3 -1548 2 3 63 3 62 59 3 c34 2 65 9 73 18 13 12 229 14 1621 12
l1607 -3 3 -92z m-300 -158 c-2 -36 -6 -65 -10 -65 -5 0 -694 0 -1533 0
l-1525 0 0 65 0 65 1535 0 1536 0 -3 -65z m4252 0 l0 -65 -1525 0 c-839 0
-1528 -1 -1532 -2 -5 -2 -9 27 -11 65 l-3 67 1536 0 1535 0 0 -65z"/>
</g>
</svg>
