<?xml version="1.0" standalone="no"?>
<!DOCTYPE svg PUBLIC "-//W3C//DTD SVG 20010904//EN"
 "http://www.w3.org/TR/2001/REC-SVG-20010904/DTD/svg10.dtd">
<svg version="1.0" xmlns="http://www.w3.org/2000/svg"
 width="1080.000000pt" height="1080.000000pt" viewBox="0 0 1080.000000 1080.000000"
 preserveAspectRatio="xMidYMid meet">

<g transform="translate(0.000000,1080.000000) scale(0.100000,-0.100000)"
fill="#000000" stroke="none">
<path d="M4295 9648 c-67 -75 -101 -127 -151 -232 -53 -113 -99 -285 -113
-430 -17 -165 -15 -7858 1 -7874 17 -17 1129 -17 1146 0 9 9 12 893 12 3917 0
3868 0 3907 -20 4025 -26 152 -42 214 -80 307 -39 95 -82 169 -136 241 -80
104 -60 98 -354 98 l-258 0 -47 -52z m590 -50 c25 -28 64 -81 85 -117 45 -75
101 -207 92 -215 -3 -3 -29 -6 -59 -6 l-53 0 0 69 c0 39 -4 73 -10 76 -6 4
-10 -22 -10 -69 l0 -76 -35 0 -35 0 0 130 c0 80 -4 130 -10 130 -6 0 -10 -50
-10 -130 l0 -130 -40 0 -40 0 0 175 c0 110 -4 175 -10 175 -6 0 -10 -65 -10
-175 l0 -175 -40 0 -40 0 0 175 c0 110 -4 175 -10 175 -6 0 -10 -65 -10 -175
l0 -175 -35 0 -35 0 0 169 c0 103 -4 172 -10 176 -7 4 -10 -55 -10 -169 l0
-176 -40 0 -40 0 0 175 c0 110 -4 175 -10 175 -6 0 -10 -65 -10 -175 l0 -175
-40 0 -40 0 0 130 c0 80 -4 130 -10 130 -6 0 -10 -50 -10 -130 l0 -130 -35 0
-35 0 0 76 c0 47 -4 73 -10 69 -5 -3 -10 -37 -10 -76 l0 -69 -54 0 c-30 0 -57
3 -59 8 -9 13 72 186 119 254 25 37 61 81 80 98 l35 30 228 0 229 0 47 -52z
m208 -430 c32 -136 37 -213 37 -565 l0 -353 -25 0 -25 0 -2 328 -3 327 -42 3
-43 3 0 69 0 69 -42 3 c-43 3 -43 3 -46 46 l-3 42 -297 -2 -297 -3 -1 -40 c0
-40 -1 -40 -42 -43 l-42 -3 0 -69 0 -69 -42 -3 -43 -3 -3 -327 -2 -328 -25 0
-25 0 0 353 c0 349 8 460 41 591 l11 46 472 0 472 0 17 -72z m-205 -3995 l2
-3943 -285 0 -285 0 0 3938 c0 2166 3 3942 7 3945 4 4 131 6 282 5 l276 -3 3
-3942z m-588 -83 l0 -3935 -30 -3 -30 -3 0 3941 0 3941 30 -3 30 -3 0 -3935z
m670 -1 l0 -3940 -32 3 -33 3 -3 3938 -2 3937 35 0 35 0 0 -3941z m-755 -69
l0 -3865 -30 0 -30 0 -3 3868 -2 3868 32 -3 33 -3 0 -3865z m843 3 l-3 -3868
-30 0 -30 0 -3 3855 c-1 2120 0 3861 3 3868 2 6 18 12 35 12 l30 0 -2 -3867z
m-930 -330 c-3 -3530 -3 -3538 -23 -3538 -20 0 -20 8 -23 3538 l-2 3537 25 0
25 0 -2 -3537z m1000 0 l-3 -3538 -22 -3 -23 -3 0 3540 0 3541 25 0 25 0 -2
-3537z m-243 -3513 l0 -25 -278 -3 c-240 -2 -278 0 -283 13 -4 8 -4 22 0 30 5
13 43 15 283 13 l278 -3 0 -25z"/>
<path d="M4400 9000 c0 -27 5 -50 10 -50 6 0 10 23 10 50 0 28 -4 50 -10 50
-5 0 -10 -22 -10 -50z"/>
<path d="M4500 9000 c0 -32 4 -49 10 -45 6 3 10 24 10 45 0 21 -4 42 -10 45
-6 4 -10 -13 -10 -45z"/>
<path d="M4598 9044 c-11 -11 -10 -82 1 -89 14 -8 17 6 11 53 -3 24 -8 40 -12
36z"/>
<path d="M4690 9000 c0 -27 5 -50 10 -50 6 0 10 23 10 50 0 28 -4 50 -10 50
-5 0 -10 -22 -10 -50z"/>
<path d="M4790 9000 c0 -27 5 -50 10 -50 6 0 10 23 10 50 0 28 -4 50 -10 50
-5 0 -10 -22 -10 -50z"/>
<path d="M4400 8821 c0 -28 5 -51 10 -51 6 0 10 20 10 44 0 25 -4 48 -10 51
-6 4 -10 -13 -10 -44z"/>
<path d="M4500 8821 c0 -28 5 -51 10 -51 6 0 10 20 10 44 0 25 -4 48 -10 51
-6 4 -10 -13 -10 -44z"/>
<path d="M4596 8863 c-9 -10 -7 -93 3 -93 5 0 11 21 13 46 3 44 -2 61 -16 47z"/>
<path d="M4697 8863 c-11 -10 -8 -93 3 -93 6 0 10 23 10 50 0 51 -1 55 -13 43z"/>
<path d="M4797 8863 c-11 -10 -8 -93 3 -93 6 0 10 23 10 50 0 51 -1 55 -13 43z"/>
<path d="M4500 8635 c0 -35 4 -54 10 -50 6 3 10 26 10 50 0 24 -4 47 -10 50
-6 4 -10 -15 -10 -50z"/>
<path d="M4597 8683 c-10 -10 -8 -91 2 -97 5 -3 11 15 13 40 3 46 -3 70 -15
57z"/>
<path d="M4400 8629 c0 -31 4 -48 10 -44 6 3 10 26 10 51 0 24 -4 44 -10 44
-5 0 -10 -23 -10 -51z"/>
<path d="M4690 8636 c0 -25 5 -48 10 -51 6 -4 10 13 10 44 0 28 -4 51 -10 51
-5 0 -10 -20 -10 -44z"/>
<path d="M4790 8636 c0 -25 5 -48 10 -51 6 -4 10 13 10 44 0 28 -4 51 -10 51
-5 0 -10 -20 -10 -44z"/>
<path d="M4400 8450 c0 -27 5 -50 10 -50 6 0 10 23 10 50 0 28 -4 50 -10 50
-5 0 -10 -22 -10 -50z"/>
<path d="M4500 8450 c0 -32 4 -49 10 -45 6 3 10 24 10 45 0 21 -4 42 -10 45
-6 4 -10 -13 -10 -45z"/>
<path d="M4596 8493 c-9 -10 -7 -81 3 -87 5 -3 11 15 13 40 3 44 -2 61 -16 47z"/>
<path d="M4690 8450 c0 -27 5 -50 10 -50 6 0 10 23 10 50 0 28 -4 50 -10 50
-5 0 -10 -22 -10 -50z"/>
<path d="M4790 8450 c0 -27 5 -50 10 -50 6 0 10 23 10 50 0 28 -4 50 -10 50
-5 0 -10 -22 -10 -50z"/>
<path d="M4400 8270 c0 -27 5 -50 10 -50 6 0 10 23 10 50 0 28 -4 50 -10 50
-5 0 -10 -22 -10 -50z"/>
<path d="M4500 8270 c0 -32 4 -49 10 -45 6 3 10 24 10 45 0 21 -4 42 -10 45
-6 4 -10 -13 -10 -45z"/>
<path d="M4598 8314 c-11 -11 -10 -82 1 -89 14 -8 17 6 11 53 -3 24 -8 40 -12
36z"/>
<path d="M4690 8270 c0 -27 5 -50 10 -50 6 0 10 23 10 50 0 28 -4 50 -10 50
-5 0 -10 -22 -10 -50z"/>
<path d="M4790 8270 c0 -27 5 -50 10 -50 6 0 10 23 10 50 0 28 -4 50 -10 50
-5 0 -10 -22 -10 -50z"/>
<path d="M4400 8090 c0 -27 5 -50 10 -50 6 0 10 23 10 50 0 28 -4 50 -10 50
-5 0 -10 -22 -10 -50z"/>
<path d="M4500 8091 c0 -28 5 -51 10 -51 6 0 10 20 10 44 0 25 -4 48 -10 51
-6 4 -10 -13 -10 -44z"/>
<path d="M4597 8133 c-13 -12 -8 -95 5 -91 8 3 11 20 9 49 -3 48 -4 52 -14 42z"/>
<path d="M4697 8133 c-11 -10 -8 -93 3 -93 6 0 10 23 10 50 0 51 -1 55 -13 43z"/>
<path d="M4797 8133 c-11 -10 -8 -93 3 -93 6 0 10 23 10 50 0 51 -1 55 -13 43z"/>
<path d="M4400 7899 c0 -31 4 -48 10 -44 6 3 10 26 10 51 0 24 -4 44 -10 44
-5 0 -10 -23 -10 -51z"/>
<path d="M4500 7899 c0 -31 4 -48 10 -44 6 3 10 26 10 51 0 24 -4 44 -10 44
-5 0 -10 -23 -10 -51z"/>
<path d="M4590 7907 c0 -43 6 -60 19 -53 10 6 0 96 -10 96 -5 0 -9 -19 -9 -43z"/>
<path d="M4690 7906 c0 -25 5 -48 10 -51 6 -4 10 13 10 44 0 28 -4 51 -10 51
-5 0 -10 -20 -10 -44z"/>
<path d="M4790 7906 c0 -25 5 -48 10 -51 6 -4 10 13 10 44 0 28 -4 51 -10 51
-5 0 -10 -20 -10 -44z"/>
<path d="M4400 7720 c0 -27 5 -50 10 -50 6 0 10 23 10 50 0 28 -4 50 -10 50
-5 0 -10 -22 -10 -50z"/>
<path d="M4500 7719 c0 -31 4 -48 10 -44 6 3 10 26 10 51 0 24 -4 44 -10 44
-5 0 -10 -23 -10 -51z"/>
<path d="M4596 7763 c-9 -10 -7 -81 3 -87 5 -3 11 15 13 40 3 44 -2 61 -16 47z"/>
<path d="M4690 7720 c0 -27 5 -50 10 -50 6 0 10 23 10 50 0 28 -4 50 -10 50
-5 0 -10 -22 -10 -50z"/>
<path d="M4790 7720 c0 -27 5 -50 10 -50 6 0 10 23 10 50 0 28 -4 50 -10 50
-5 0 -10 -22 -10 -50z"/>
<path d="M4400 7540 c0 -27 5 -50 10 -50 6 0 10 23 10 50 0 28 -4 50 -10 50
-5 0 -10 -22 -10 -50z"/>
<path d="M4500 7540 c0 -32 4 -49 10 -45 6 3 10 24 10 45 0 21 -4 42 -10 45
-6 4 -10 -13 -10 -45z"/>
<path d="M4595 7577 c-9 -22 -2 -82 9 -79 10 2 13 79 3 89 -4 3 -9 -1 -12 -10z"/>
<path d="M4690 7540 c0 -27 5 -50 10 -50 6 0 10 23 10 50 0 28 -4 50 -10 50
-5 0 -10 -22 -10 -50z"/>
<path d="M4790 7540 c0 -27 5 -50 10 -50 6 0 10 23 10 50 0 28 -4 50 -10 50
-5 0 -10 -22 -10 -50z"/>
<path d="M4400 7360 c0 -27 5 -50 10 -50 6 0 10 23 10 50 0 28 -4 50 -10 50
-5 0 -10 -22 -10 -50z"/>
<path d="M4500 7361 c0 -28 5 -51 10 -51 6 0 10 20 10 44 0 25 -4 48 -10 51
-6 4 -10 -13 -10 -44z"/>
<path d="M4595 7397 c-9 -22 -2 -82 9 -82 10 0 12 82 2 92 -3 3 -8 -1 -11 -10z"/>
<path d="M4697 7403 c-11 -10 -8 -93 3 -93 6 0 10 23 10 50 0 51 -1 55 -13 43z"/>
<path d="M4797 7403 c-11 -10 -8 -93 3 -93 6 0 10 23 10 50 0 51 -1 55 -13 43z"/>
<path d="M4400 7169 c0 -31 4 -48 10 -44 6 3 10 26 10 51 0 24 -4 44 -10 44
-5 0 -10 -23 -10 -51z"/>
<path d="M4500 7169 c0 -31 4 -48 10 -44 6 3 10 26 10 51 0 24 -4 44 -10 44
-5 0 -10 -23 -10 -51z"/>
<path d="M4598 7214 c-11 -11 -10 -82 1 -89 14 -8 17 6 11 53 -3 24 -8 40 -12
36z"/>
<path d="M4690 7176 c0 -25 5 -48 10 -51 6 -4 10 13 10 44 0 28 -4 51 -10 51
-5 0 -10 -20 -10 -44z"/>
<path d="M4790 7176 c0 -25 5 -48 10 -51 6 -4 10 13 10 44 0 28 -4 51 -10 51
-5 0 -10 -20 -10 -44z"/>
<path d="M4400 6990 c0 -27 5 -50 10 -50 6 0 10 23 10 50 0 28 -4 50 -10 50
-5 0 -10 -22 -10 -50z"/>
<path d="M4500 6989 c0 -31 4 -48 10 -44 6 3 10 26 10 51 0 24 -4 44 -10 44
-5 0 -10 -23 -10 -51z"/>
<path d="M4598 7034 c-11 -11 -10 -82 1 -89 14 -8 17 6 11 53 -3 24 -8 40 -12
36z"/>
<path d="M4690 6990 c0 -27 5 -50 10 -50 6 0 10 23 10 50 0 28 -4 50 -10 50
-5 0 -10 -22 -10 -50z"/>
<path d="M4790 6990 c0 -27 5 -50 10 -50 6 0 10 23 10 50 0 28 -4 50 -10 50
-5 0 -10 -22 -10 -50z"/>
<path d="M4400 6810 c0 -27 5 -50 10 -50 6 0 10 23 10 50 0 28 -4 50 -10 50
-5 0 -10 -22 -10 -50z"/>
<path d="M4500 6811 c0 -28 5 -51 10 -51 6 0 10 20 10 44 0 25 -4 48 -10 51
-6 4 -10 -13 -10 -44z"/>
<path d="M4596 6853 c-9 -10 -7 -81 3 -87 5 -3 11 15 13 40 3 44 -2 61 -16 47z"/>
<path d="M4690 6810 c0 -27 5 -50 10 -50 6 0 10 23 10 50 0 28 -4 50 -10 50
-5 0 -10 -22 -10 -50z"/>
<path d="M4790 6810 c0 -27 5 -50 10 -50 6 0 10 23 10 50 0 28 -4 50 -10 50
-5 0 -10 -22 -10 -50z"/>
<path d="M4400 6631 c0 -28 5 -51 10 -51 6 0 10 20 10 44 0 25 -4 48 -10 51
-6 4 -10 -13 -10 -44z"/>
<path d="M4500 6631 c0 -28 5 -51 10 -51 6 0 10 20 10 44 0 25 -4 48 -10 51
-6 4 -10 -13 -10 -44z"/>
<path d="M4598 6674 c-11 -10 -10 -76 1 -92 7 -11 9 -11 12 0 7 20 -5 101 -13
92z"/>
<path d="M4697 6673 c-11 -10 -8 -93 3 -93 6 0 10 23 10 50 0 51 -1 55 -13 43z"/>
<path d="M4797 6673 c-11 -10 -8 -93 3 -93 6 0 10 23 10 50 0 51 -1 55 -13 43z"/>
<path d="M4400 6439 c0 -31 4 -48 10 -44 6 3 10 26 10 51 0 24 -4 44 -10 44
-5 0 -10 -23 -10 -51z"/>
<path d="M4500 6439 c0 -31 4 -48 10 -44 6 3 10 26 10 51 0 24 -4 44 -10 44
-5 0 -10 -23 -10 -51z"/>
<path d="M4596 6483 c-9 -10 -7 -81 3 -87 5 -3 11 15 13 40 3 44 -2 61 -16 47z"/>
<path d="M4690 6446 c0 -25 5 -48 10 -51 6 -4 10 13 10 44 0 28 -4 51 -10 51
-5 0 -10 -20 -10 -44z"/>
<path d="M4790 6446 c0 -25 5 -48 10 -51 6 -4 10 13 10 44 0 28 -4 51 -10 51
-5 0 -10 -20 -10 -44z"/>
<path d="M4400 6260 c0 -27 5 -50 10 -50 6 0 10 23 10 50 0 28 -4 50 -10 50
-5 0 -10 -22 -10 -50z"/>
<path d="M4500 6259 c0 -31 4 -48 10 -44 6 3 10 26 10 51 0 24 -4 44 -10 44
-5 0 -10 -23 -10 -51z"/>
<path d="M4598 6304 c-11 -11 -10 -82 1 -89 14 -8 17 6 11 53 -3 24 -8 40 -12
36z"/>
<path d="M4690 6260 c0 -27 5 -50 10 -50 6 0 10 23 10 50 0 28 -4 50 -10 50
-5 0 -10 -22 -10 -50z"/>
<path d="M4790 6260 c0 -27 5 -50 10 -50 6 0 10 23 10 50 0 28 -4 50 -10 50
-5 0 -10 -22 -10 -50z"/>
<path d="M4400 6080 c0 -27 5 -50 10 -50 6 0 10 23 10 50 0 28 -4 50 -10 50
-5 0 -10 -22 -10 -50z"/>
<path d="M4500 6081 c0 -28 5 -51 10 -51 6 0 10 20 10 44 0 25 -4 48 -10 51
-6 4 -10 -13 -10 -44z"/>
<path d="M4595 6117 c-9 -22 -2 -82 9 -79 10 2 13 79 3 89 -4 3 -9 -1 -12 -10z"/>
<path d="M4690 6080 c0 -27 5 -50 10 -50 6 0 10 23 10 50 0 28 -4 50 -10 50
-5 0 -10 -22 -10 -50z"/>
<path d="M4790 6080 c0 -27 5 -50 10 -50 6 0 10 23 10 50 0 28 -4 50 -10 50
-5 0 -10 -22 -10 -50z"/>
<path d="M4500 5901 c0 -28 5 -51 10 -51 6 0 10 20 10 44 0 25 -4 48 -10 51
-6 4 -10 -13 -10 -44z"/>
<path d="M4596 5943 c-9 -10 -7 -93 3 -93 5 0 11 21 13 46 3 44 -2 61 -16 47z"/>
<path d="M4697 5943 c-11 -10 -8 -93 3 -93 6 0 10 23 10 50 0 51 -1 55 -13 43z"/>
<path d="M4797 5943 c-11 -10 -8 -93 3 -93 6 0 10 23 10 50 0 51 -1 55 -13 43z"/>
<path d="M4400 5895 c0 -25 5 -45 10 -45 6 0 10 20 10 45 0 25 -4 45 -10 45
-5 0 -10 -20 -10 -45z"/>
<path d="M4400 5710 c0 -27 5 -50 10 -50 6 0 10 23 10 50 0 28 -4 50 -10 50
-5 0 -10 -22 -10 -50z"/>
<path d="M4500 5709 c0 -31 4 -48 10 -44 6 3 10 26 10 51 0 24 -4 44 -10 44
-5 0 -10 -23 -10 -51z"/>
<path d="M4597 5753 c-11 -10 -8 -81 3 -88 11 -7 11 -4 13 50 0 37 -5 50 -16
38z"/>
<path d="M4690 5716 c0 -25 5 -48 10 -51 6 -4 10 13 10 44 0 28 -4 51 -10 51
-5 0 -10 -20 -10 -44z"/>
<path d="M4790 5716 c0 -25 5 -48 10 -51 6 -4 10 13 10 44 0 28 -4 51 -10 51
-5 0 -10 -20 -10 -44z"/>
<path d="M4400 5530 c0 -27 5 -50 10 -50 6 0 10 23 10 50 0 28 -4 50 -10 50
-5 0 -10 -22 -10 -50z"/>
<path d="M4500 5530 c0 -32 4 -49 10 -45 6 3 10 24 10 45 0 21 -4 42 -10 45
-6 4 -10 -13 -10 -45z"/>
<path d="M4595 5567 c-9 -22 -2 -82 9 -79 10 2 13 79 3 89 -4 3 -9 -1 -12 -10z"/>
<path d="M4690 5530 c0 -27 5 -50 10 -50 6 0 10 23 10 50 0 28 -4 50 -10 50
-5 0 -10 -22 -10 -50z"/>
<path d="M4790 5530 c0 -27 5 -50 10 -50 6 0 10 23 10 50 0 28 -4 50 -10 50
-5 0 -10 -22 -10 -50z"/>
<path d="M4400 5350 c0 -27 5 -50 10 -50 6 0 10 23 10 50 0 28 -4 50 -10 50
-5 0 -10 -22 -10 -50z"/>
<path d="M4500 5351 c0 -28 5 -51 10 -51 6 0 10 20 10 44 0 25 -4 48 -10 51
-6 4 -10 -13 -10 -44z"/>
<path d="M4598 5394 c-11 -11 -10 -82 1 -89 14 -8 17 6 11 53 -3 24 -8 40 -12
36z"/>
<path d="M4690 5350 c0 -27 5 -50 10 -50 6 0 10 23 10 50 0 28 -4 50 -10 50
-5 0 -10 -22 -10 -50z"/>
<path d="M4790 5350 c0 -27 5 -50 10 -50 6 0 10 23 10 50 0 28 -4 50 -10 50
-5 0 -10 -22 -10 -50z"/>
<path d="M4500 5171 c0 -28 5 -51 10 -51 6 0 10 20 10 44 0 25 -4 48 -10 51
-6 4 -10 -13 -10 -44z"/>
<path d="M4597 5213 c-11 -10 -8 -93 3 -93 6 0 10 23 10 50 0 51 -1 55 -13 43z"/>
<path d="M4697 5213 c-11 -10 -8 -93 3 -93 6 0 10 23 10 50 0 51 -1 55 -13 43z"/>
<path d="M4797 5213 c-11 -10 -8 -93 3 -93 6 0 10 23 10 50 0 51 -1 55 -13 43z"/>
<path d="M4400 5165 c0 -25 5 -45 10 -45 6 0 10 20 10 45 0 25 -4 45 -10 45
-5 0 -10 -20 -10 -45z"/>
<path d="M4400 4980 c0 -27 5 -50 10 -50 6 0 10 23 10 50 0 28 -4 50 -10 50
-5 0 -10 -22 -10 -50z"/>
<path d="M4500 4979 c0 -31 4 -48 10 -44 6 3 10 26 10 51 0 24 -4 44 -10 44
-5 0 -10 -23 -10 -51z"/>
<path d="M4590 4987 c0 -43 6 -60 19 -53 10 6 0 96 -10 96 -5 0 -9 -19 -9 -43z"/>
<path d="M4690 4986 c0 -25 5 -48 10 -51 6 -4 10 13 10 44 0 28 -4 51 -10 51
-5 0 -10 -20 -10 -44z"/>
<path d="M4790 4986 c0 -25 5 -48 10 -51 6 -4 10 13 10 44 0 28 -4 51 -10 51
-5 0 -10 -20 -10 -44z"/>
<path d="M4400 4800 c0 -27 5 -50 10 -50 6 0 10 23 10 50 0 28 -4 50 -10 50
-5 0 -10 -22 -10 -50z"/>
<path d="M4500 4800 c0 -32 4 -49 10 -45 6 3 10 24 10 45 0 21 -4 42 -10 45
-6 4 -10 -13 -10 -45z"/>
<path d="M4596 4843 c-9 -10 -7 -81 3 -87 5 -3 11 15 13 40 3 44 -2 61 -16 47z"/>
<path d="M4690 4800 c0 -27 5 -50 10 -50 6 0 10 23 10 50 0 28 -4 50 -10 50
-5 0 -10 -22 -10 -50z"/>
<path d="M4790 4800 c0 -27 5 -50 10 -50 6 0 10 23 10 50 0 28 -4 50 -10 50
-5 0 -10 -22 -10 -50z"/>
<path d="M4400 4620 c0 -27 5 -50 10 -50 6 0 10 23 10 50 0 28 -4 50 -10 50
-5 0 -10 -22 -10 -50z"/>
<path d="M4500 4620 c0 -32 4 -49 10 -45 6 3 10 24 10 45 0 21 -4 42 -10 45
-6 4 -10 -13 -10 -45z"/>
<path d="M4595 4657 c-9 -22 -2 -82 9 -79 10 2 13 79 3 89 -4 3 -9 -1 -12 -10z"/>
<path d="M4697 4663 c-11 -10 -8 -93 3 -93 6 0 10 23 10 50 0 51 -1 55 -13 43z"/>
<path d="M4790 4620 c0 -27 5 -50 10 -50 6 0 10 23 10 50 0 28 -4 50 -10 50
-5 0 -10 -22 -10 -50z"/>
<path d="M4400 4441 c0 -28 5 -51 10 -51 6 0 10 20 10 44 0 25 -4 48 -10 51
-6 4 -10 -13 -10 -44z"/>
<path d="M4500 4435 c0 -35 4 -54 10 -50 6 3 10 26 10 50 0 24 -4 47 -10 50
-6 4 -10 -15 -10 -50z"/>
<path d="M4596 4475 c-9 -26 -7 -83 4 -90 11 -7 12 -2 12 58 0 42 -6 56 -16
32z"/>
<path d="M4697 4483 c-11 -10 -8 -93 3 -93 6 0 10 23 10 50 0 51 -1 55 -13 43z"/>
<path d="M4797 4483 c-11 -10 -8 -91 3 -98 6 -4 10 15 10 49 0 57 -1 61 -13
49z"/>
<path d="M4400 4250 c0 -27 5 -50 10 -50 6 0 10 23 10 50 0 28 -4 50 -10 50
-5 0 -10 -22 -10 -50z"/>
<path d="M4500 4249 c0 -31 4 -48 10 -44 6 3 10 26 10 51 0 24 -4 44 -10 44
-5 0 -10 -23 -10 -51z"/>
<path d="M4590 4257 c0 -43 6 -60 19 -53 10 6 0 96 -10 96 -5 0 -9 -19 -9 -43z"/>
<path d="M4690 4256 c0 -25 5 -48 10 -51 6 -4 10 13 10 44 0 28 -4 51 -10 51
-5 0 -10 -20 -10 -44z"/>
<path d="M4790 4256 c0 -25 5 -48 10 -51 6 -4 10 13 10 44 0 28 -4 51 -10 51
-5 0 -10 -20 -10 -44z"/>
<path d="M4400 4070 c0 -27 5 -50 10 -50 6 0 10 23 10 50 0 28 -4 50 -10 50
-5 0 -10 -22 -10 -50z"/>
<path d="M4500 4070 c0 -32 4 -49 10 -45 6 3 10 24 10 45 0 21 -4 42 -10 45
-6 4 -10 -13 -10 -45z"/>
<path d="M4596 4113 c-9 -10 -7 -81 3 -87 5 -3 11 15 13 40 3 44 -2 61 -16 47z"/>
<path d="M4690 4070 c0 -27 5 -50 10 -50 6 0 10 23 10 50 0 28 -4 50 -10 50
-5 0 -10 -22 -10 -50z"/>
<path d="M4790 4070 c0 -27 5 -50 10 -50 6 0 10 23 10 50 0 28 -4 50 -10 50
-5 0 -10 -22 -10 -50z"/>
<path d="M4400 3890 c0 -27 5 -50 10 -50 6 0 10 23 10 50 0 28 -4 50 -10 50
-5 0 -10 -22 -10 -50z"/>
<path d="M4500 3891 c0 -28 5 -51 10 -51 6 0 10 20 10 44 0 25 -4 48 -10 51
-6 4 -10 -13 -10 -44z"/>
<path d="M4596 3933 c-9 -10 -7 -81 3 -87 5 -3 11 15 13 40 3 44 -2 61 -16 47z"/>
<path d="M4697 3933 c-11 -10 -8 -93 3 -93 6 0 10 23 10 50 0 51 -1 55 -13 43z"/>
<path d="M4797 3933 c-11 -10 -8 -93 3 -93 6 0 10 23 10 50 0 51 -1 55 -13 43z"/>
<path d="M4500 3705 c0 -35 4 -54 10 -50 6 3 10 26 10 50 0 24 -4 47 -10 50
-6 4 -10 -15 -10 -50z"/>
<path d="M4597 3753 c-10 -10 -8 -76 3 -93 11 -17 12 -15 12 53 0 40 -4 52
-15 40z"/>
<path d="M4697 3753 c-11 -10 -8 -91 3 -98 6 -4 10 15 10 49 0 57 -1 61 -13
49z"/>
<path d="M4797 3753 c-11 -10 -8 -91 3 -98 6 -4 10 15 10 49 0 57 -1 61 -13
49z"/>
<path d="M4400 3705 c0 -25 5 -45 10 -45 6 0 10 20 10 45 0 25 -4 45 -10 45
-5 0 -10 -20 -10 -45z"/>
<path d="M4400 3520 c0 -27 5 -50 10 -50 6 0 10 23 10 50 0 28 -4 50 -10 50
-5 0 -10 -22 -10 -50z"/>
<path d="M4500 3519 c0 -31 4 -48 10 -44 6 3 10 26 10 51 0 24 -4 44 -10 44
-5 0 -10 -23 -10 -51z"/>
<path d="M4595 3557 c-9 -22 -2 -82 9 -79 10 2 13 79 3 89 -4 3 -9 -1 -12 -10z"/>
<path d="M4690 3526 c0 -25 5 -48 10 -51 6 -4 10 13 10 44 0 28 -4 51 -10 51
-5 0 -10 -20 -10 -44z"/>
<path d="M4790 3526 c0 -25 5 -48 10 -51 6 -4 10 13 10 44 0 28 -4 51 -10 51
-5 0 -10 -20 -10 -44z"/>
<path d="M4400 3340 c0 -27 5 -50 10 -50 6 0 10 23 10 50 0 28 -4 50 -10 50
-5 0 -10 -22 -10 -50z"/>
<path d="M4500 3339 c0 -31 4 -48 10 -44 6 3 10 26 10 51 0 24 -4 44 -10 44
-5 0 -10 -23 -10 -51z"/>
<path d="M4598 3384 c-11 -11 -10 -82 1 -89 14 -8 17 6 11 53 -3 24 -8 40 -12
36z"/>
<path d="M4690 3340 c0 -27 5 -50 10 -50 6 0 10 23 10 50 0 28 -4 50 -10 50
-5 0 -10 -22 -10 -50z"/>
<path d="M4790 3340 c0 -27 5 -50 10 -50 6 0 10 23 10 50 0 28 -4 50 -10 50
-5 0 -10 -22 -10 -50z"/>
<path d="M4400 3160 c0 -27 5 -50 10 -50 6 0 10 23 10 50 0 28 -4 50 -10 50
-5 0 -10 -22 -10 -50z"/>
<path d="M4500 3161 c0 -28 5 -51 10 -51 6 0 10 20 10 44 0 25 -4 48 -10 51
-6 4 -10 -13 -10 -44z"/>
<path d="M4596 3203 c-9 -10 -7 -93 3 -93 5 0 11 21 13 46 3 44 -2 61 -16 47z"/>
<path d="M4697 3203 c-11 -10 -8 -93 3 -93 6 0 10 23 10 50 0 51 -1 55 -13 43z"/>
<path d="M4797 3203 c-11 -10 -8 -93 3 -93 6 0 10 23 10 50 0 51 -1 55 -13 43z"/>
<path d="M4500 2975 c0 -35 4 -54 10 -50 6 3 10 26 10 50 0 24 -4 47 -10 50
-6 4 -10 -15 -10 -50z"/>
<path d="M4597 3023 c-11 -10 -8 -91 3 -98 6 -4 10 15 10 49 0 57 -1 61 -13
49z"/>
<path d="M4400 2975 c0 -25 5 -45 10 -45 6 0 10 20 10 45 0 25 -4 45 -10 45
-5 0 -10 -20 -10 -45z"/>
<path d="M4690 2976 c0 -25 5 -48 10 -51 6 -4 10 13 10 44 0 28 -4 51 -10 51
-5 0 -10 -20 -10 -44z"/>
<path d="M4790 2976 c0 -25 5 -48 10 -51 6 -4 10 13 10 44 0 28 -4 51 -10 51
-5 0 -10 -20 -10 -44z"/>
<path d="M4400 2790 c0 -27 5 -50 10 -50 6 0 10 23 10 50 0 28 -4 50 -10 50
-5 0 -10 -22 -10 -50z"/>
<path d="M4500 2789 c0 -31 4 -48 10 -44 6 3 10 26 10 51 0 24 -4 44 -10 44
-5 0 -10 -23 -10 -51z"/>
<path d="M4596 2833 c-9 -10 -7 -81 3 -87 5 -3 11 15 13 40 3 44 -2 61 -16 47z"/>
<path d="M4690 2790 c0 -27 5 -50 10 -50 6 0 10 23 10 50 0 28 -4 50 -10 50
-5 0 -10 -22 -10 -50z"/>
<path d="M4790 2790 c0 -27 5 -50 10 -50 6 0 10 23 10 50 0 28 -4 50 -10 50
-5 0 -10 -22 -10 -50z"/>
<path d="M4400 2610 c0 -27 5 -50 10 -50 6 0 10 23 10 50 0 28 -4 50 -10 50
-5 0 -10 -22 -10 -50z"/>
<path d="M4500 2610 c0 -32 4 -49 10 -45 6 3 10 24 10 45 0 21 -4 42 -10 45
-6 4 -10 -13 -10 -45z"/>
<path d="M4595 2647 c-9 -22 -2 -82 9 -79 10 2 13 79 3 89 -4 3 -9 -1 -12 -10z"/>
<path d="M4690 2610 c0 -27 5 -50 10 -50 6 0 10 23 10 50 0 28 -4 50 -10 50
-5 0 -10 -22 -10 -50z"/>
<path d="M4790 2610 c0 -27 5 -50 10 -50 6 0 10 23 10 50 0 28 -4 50 -10 50
-5 0 -10 -22 -10 -50z"/>
<path d="M4400 2430 c0 -27 5 -50 10 -50 6 0 10 23 10 50 0 28 -4 50 -10 50
-5 0 -10 -22 -10 -50z"/>
<path d="M4500 2431 c0 -28 5 -51 10 -51 6 0 10 20 10 44 0 25 -4 48 -10 51
-6 4 -10 -13 -10 -44z"/>
<path d="M4598 2474 c-11 -11 -10 -82 1 -89 14 -8 17 6 11 53 -3 24 -8 40 -12
36z"/>
<path d="M4697 2473 c-11 -10 -8 -93 3 -93 6 0 10 23 10 50 0 51 -1 55 -13 43z"/>
<path d="M4790 2430 c0 -27 5 -50 10 -50 6 0 10 23 10 50 0 28 -4 50 -10 50
-5 0 -10 -22 -10 -50z"/>
<path d="M4598 2294 c-11 -11 -10 -92 1 -99 5 -3 11 -2 13 2 7 15 -7 105 -14
97z"/>
<path d="M4400 2245 c0 -25 5 -45 10 -45 6 0 10 20 10 45 0 25 -4 45 -10 45
-5 0 -10 -20 -10 -45z"/>
<path d="M4500 2239 c0 -31 4 -48 10 -44 6 3 10 26 10 51 0 24 -4 44 -10 44
-5 0 -10 -23 -10 -51z"/>
<path d="M4690 2245 c0 -25 5 -45 10 -45 6 0 10 20 10 45 0 25 -4 45 -10 45
-5 0 -10 -20 -10 -45z"/>
<path d="M4790 2246 c0 -25 5 -48 10 -51 6 -4 10 13 10 44 0 28 -4 51 -10 51
-5 0 -10 -20 -10 -44z"/>
<path d="M4400 2060 c0 -27 5 -50 10 -50 6 0 10 23 10 50 0 28 -4 50 -10 50
-5 0 -10 -22 -10 -50z"/>
<path d="M4500 2059 c0 -31 4 -48 10 -44 6 3 10 26 10 51 0 24 -4 44 -10 44
-5 0 -10 -23 -10 -51z"/>
<path d="M4596 2103 c-9 -10 -7 -81 3 -87 5 -3 11 15 13 40 3 44 -2 61 -16 47z"/>
<path d="M4690 2060 c0 -27 5 -50 10 -50 6 0 10 23 10 50 0 28 -4 50 -10 50
-5 0 -10 -22 -10 -50z"/>
<path d="M4790 2060 c0 -27 5 -50 10 -50 6 0 10 23 10 50 0 28 -4 50 -10 50
-5 0 -10 -22 -10 -50z"/>
<path d="M4400 1880 c0 -27 5 -50 10 -50 6 0 10 23 10 50 0 28 -4 50 -10 50
-5 0 -10 -22 -10 -50z"/>
<path d="M4500 1880 c0 -32 4 -49 10 -45 6 3 10 24 10 45 0 21 -4 42 -10 45
-6 4 -10 -13 -10 -45z"/>
<path d="M4595 1917 c-9 -22 -2 -82 9 -79 10 2 13 79 3 89 -4 3 -9 -1 -12 -10z"/>
<path d="M4690 1880 c0 -27 5 -50 10 -50 6 0 10 23 10 50 0 28 -4 50 -10 50
-5 0 -10 -22 -10 -50z"/>
<path d="M4790 1880 c0 -27 5 -50 10 -50 6 0 10 23 10 50 0 28 -4 50 -10 50
-5 0 -10 -22 -10 -50z"/>
<path d="M4400 1700 c0 -27 5 -50 10 -50 6 0 10 23 10 50 0 28 -4 50 -10 50
-5 0 -10 -22 -10 -50z"/>
<path d="M4500 1701 c0 -28 5 -51 10 -51 6 0 10 20 10 44 0 25 -4 48 -10 51
-6 4 -10 -13 -10 -44z"/>
<path d="M4598 1744 c-11 -11 -10 -82 1 -89 14 -8 17 6 11 53 -3 24 -8 40 -12
36z"/>
<path d="M4697 1743 c-11 -10 -8 -93 3 -93 6 0 10 23 10 50 0 51 -1 55 -13 43z"/>
<path d="M4797 1743 c-11 -10 -8 -93 3 -93 6 0 10 23 10 50 0 51 -1 55 -13 43z"/>
<path d="M4500 1515 c0 -35 4 -54 10 -50 6 3 10 26 10 50 0 24 -4 47 -10 50
-6 4 -10 -15 -10 -50z"/>
<path d="M4596 1555 c-9 -25 -7 -83 3 -89 5 -3 11 15 13 40 4 49 -5 77 -16 49z"/>
<path d="M4400 1509 c0 -31 4 -48 10 -44 6 3 10 26 10 51 0 24 -4 44 -10 44
-5 0 -10 -23 -10 -51z"/>
<path d="M4690 1516 c0 -25 5 -48 10 -51 6 -4 10 13 10 44 0 28 -4 51 -10 51
-5 0 -10 -20 -10 -44z"/>
<path d="M4790 1516 c0 -25 5 -48 10 -51 6 -4 10 13 10 44 0 28 -4 51 -10 51
-5 0 -10 -20 -10 -44z"/>
<path d="M4400 1330 c0 -27 5 -50 10 -50 6 0 10 23 10 50 0 28 -4 50 -10 50
-5 0 -10 -22 -10 -50z"/>
<path d="M4500 1329 c0 -31 4 -48 10 -44 6 3 10 26 10 51 0 24 -4 44 -10 44
-5 0 -10 -23 -10 -51z"/>
<path d="M4598 1374 c-11 -11 -10 -82 1 -89 14 -8 17 6 11 53 -3 24 -8 40 -12
36z"/>
<path d="M4690 1336 c0 -25 5 -48 10 -51 6 -4 10 13 10 44 0 28 -4 51 -10 51
-5 0 -10 -20 -10 -44z"/>
<path d="M4790 1330 c0 -27 5 -50 10 -50 6 0 10 23 10 50 0 28 -4 50 -10 50
-5 0 -10 -22 -10 -50z"/>
<path d="M6348 8204 c-5 -4 -8 -107 -8 -228 0 -220 0 -222 -35 -355 l-35 -133
30 -100 c17 -55 30 -107 30 -115 0 -8 -46 -58 -102 -111 -207 -194 -190 -172
-187 -244 3 -59 1 -63 -22 -68 -17 -4 -25 -14 -27 -32 -2 -21 -9 -28 -30 -30
-19 -2 -28 -10 -30 -26 -2 -13 -14 -27 -28 -32 -23 -9 -24 -14 -24 -92 l0 -83
-85 -85 -85 -85 0 -1256 0 -1257 -69 -209 c-186 -558 -277 -987 -288 -1358 -6
-212 7 -328 53 -464 56 -169 160 -283 292 -322 l42 -12 0 -194 c0 -122 4 -193
10 -193 6 0 10 71 10 194 l0 194 51 16 c28 10 53 15 55 13 3 -2 8 -101 12
-218 l7 -214 470 0 470 0 5 405 5 405 83 79 82 79 0 2156 0 2156 -85 85 -85
85 0 83 c0 78 -1 83 -24 92 -13 4 -26 20 -30 34 -4 17 -14 26 -33 28 -20 2
-29 10 -33 28 -4 16 -14 26 -28 28 -20 3 -22 9 -22 70 l1 67 -147 141 -147
140 34 108 33 108 -34 132 c-34 127 -35 139 -40 364 -3 129 -8 230 -12 226z
m40 -611 c25 -98 27 -114 16 -149 -7 -21 -20 -65 -29 -97 -10 -33 -21 -55 -25
-50 -5 4 -20 49 -35 100 l-26 91 26 104 c30 120 36 137 41 122 3 -6 17 -60 32
-121z m-38 -553 c5 0 10 34 12 75 l3 76 103 -97 c56 -52 102 -99 102 -102 0
-5 -337 -7 -440 -2 -3 0 42 44 100 99 l105 98 3 -73 c2 -41 7 -74 12 -74z
m255 -140 l0 -65 -252 -3 -253 -2 0 70 0 70 253 -2 252 -3 0 -65z m3 -89 c9
-5 25 -12 35 -15 10 -3 15 -10 12 -16 -4 -6 -115 -10 -306 -10 -259 0 -299 2
-299 15 0 8 9 15 19 15 11 0 23 5 26 10 8 13 489 14 513 1z m57 -61 c3 -5 17
-10 31 -10 13 0 24 -4 24 -10 0 -6 -130 -10 -370 -10 -240 0 -370 4 -370 10 0
6 13 10 29 10 17 0 33 5 36 10 4 6 118 10 310 10 192 0 306 -4 310 -10z m-345
-58 c0 -4 -31 -39 -70 -77 l-70 -69 0 -2350 0 -2351 72 -72 72 -73 -142 0
c-152 0 -158 2 -126 48 8 12 25 23 37 23 17 1 18 2 5 6 -21 5 -23 25 -6 56 7
12 13 27 14 32 52 263 58 349 39 532 -19 186 -41 345 -59 426 -8 31 -9 60 -5
63 15 9 11 67 -4 61 -10 -4 -22 29 -45 121 -18 70 -32 141 -32 159 0 17 -4 33
-10 35 -5 2 -25 59 -45 127 l-35 123 4 1502 c2 825 7 1538 11 1584 6 71 9 82
25 82 10 0 22 5 25 10 7 12 345 14 345 2z m417 -4 l33 -12 0 -72 c0 -40 5 -76
10 -79 14 -9 14 -4581 0 -4590 -5 -3 -10 -22 -10 -41 l0 -34 -86 0 c-54 0 -83
-4 -79 -10 3 -5 42 -10 86 -10 l79 0 0 -30 0 -30 -87 -2 -88 -2 88 -3 87 -4 0
-34 0 -35 -190 0 c-104 0 -190 3 -190 7 0 3 31 38 69 78 l69 71 0 2344 0 2345
-76 77 -75 78 163 0 c102 0 176 -5 197 -12z m-312 -68 l69 -70 -137 0 c-75 0
-137 3 -137 7 0 9 122 133 130 133 3 0 37 -31 75 -70z m83 -157 l-3 -68 -150
0 -150 0 -3 68 -3 67 156 0 156 0 -3 -67z m-608 -29 c0 -51 -8 -57 -69 -52
l-42 3 48 51 c26 28 51 49 56 47 4 -2 7 -24 7 -49z m1010 -46 c0 -4 -22 -8
-50 -8 l-50 0 0 57 0 57 50 -49 c28 -27 50 -53 50 -57z m-402 -80 l3 -68 -156
0 -155 0 0 70 0 71 153 -3 152 -3 3 -67z m-610 -5 l3 -63 -66 0 -65 0 0 65 0
66 63 -3 62 -3 3 -62z m1040 0 l3 -63 -66 0 -65 0 0 58 c0 32 3 62 7 66 4 4
32 6 63 4 l55 -3 3 -62z m-1043 -153 l0 -65 -62 -3 -63 -3 0 71 0 71 63 -3 62
-3 0 -65z m613 3 l-3 -68 -152 -3 -153 -3 0 71 0 70 155 0 156 0 -3 -67z m430
0 l-3 -68 -62 -3 -63 -3 0 71 0 70 65 0 66 0 -3 -67z m-1040 -160 l-3 -67 -60
1 -60 1 -3 66 -3 66 66 0 66 0 -3 -67z m612 2 c0 -36 -4 -65 -10 -65 -5 0 -74
-1 -152 -1 l-143 0 -3 65 -3 66 156 0 155 0 0 -65z m428 -2 l-3 -67 -60 1 -60
1 -3 66 -3 66 66 0 66 0 -3 -67z m-1043 -153 l0 -65 -62 -3 -63 -3 0 71 0 71
63 -3 62 -3 0 -65z m615 0 l0 -70 -155 0 -155 0 0 70 0 70 155 0 155 0 0 -70z
m428 -2 l3 -68 -66 0 -65 0 0 70 0 71 63 -3 62 -3 3 -67z m-1043 -158 l0 -65
-62 -3 -63 -3 0 71 0 71 63 -3 62 -3 0 -65z m613 3 l-3 -68 -152 -3 -153 -3 0
71 0 70 155 0 156 0 -3 -67z m430 0 l-3 -68 -62 -3 -63 -3 0 71 0 70 65 0 66
0 -3 -67z m-1045 -92 c4 -1 7 -30 7 -66 l0 -65 -65 0 -65 0 0 63 c0 35 2 66 4
68 3 3 76 3 119 0z m617 -67 l0 -64 -155 0 -155 0 0 63 c0 35 2 66 4 68 2 2
72 3 155 1 l151 -3 0 -65z m428 2 l3 -66 -66 0 -65 0 0 63 c0 35 2 66 4 68 2
2 31 3 63 3 l58 -2 3 -66z m-1043 -156 l0 -65 -62 -3 -63 -3 0 71 0 71 63 -3
62 -3 0 -65z m613 -2 l3 -68 -156 0 -155 0 0 70 0 71 153 -3 152 -3 3 -67z
m430 0 l3 -68 -66 0 -65 0 0 70 0 71 63 -3 62 -3 3 -67z m-1040 -155 l-3 -68
-62 -3 -63 -3 0 71 0 70 65 0 66 0 -3 -67z m610 0 l-3 -68 -152 -3 -153 -3 0
71 0 70 155 0 156 0 -3 -67z m430 0 l-3 -68 -62 -3 -63 -3 0 71 0 70 65 0 66
0 -3 -67z m-1040 -155 l3 -68 -66 0 -65 0 0 70 0 71 63 -3 62 -3 3 -67z m610
0 l3 -68 -156 0 -155 0 0 63 c0 35 3 67 7 71 4 3 72 5 152 4 l146 -3 3 -67z
m430 0 l3 -68 -66 0 -65 0 0 63 c0 35 3 67 7 71 4 4 32 6 63 4 l55 -3 3 -67z
m-1043 -158 l0 -65 -62 -3 -63 -3 0 71 0 71 63 -3 62 -3 0 -65z m615 0 l0 -70
-155 0 -155 0 0 70 0 70 155 0 155 0 0 -70z m428 -2 l3 -68 -66 0 -65 0 0 70
0 71 63 -3 62 -3 3 -67z m-1040 -155 l-3 -68 -62 -3 -63 -3 0 71 0 70 65 0 66
0 -3 -67z m610 0 l-3 -68 -152 -3 -153 -3 0 71 0 70 155 0 156 0 -3 -67z m430
0 l-3 -68 -62 -3 -63 -3 0 71 0 70 65 0 66 0 -3 -67z m-1040 -155 l3 -68 -66
0 -65 0 0 63 c0 35 3 67 7 71 4 4 32 6 63 4 l55 -3 3 -67z m610 0 l3 -68 -156
0 -155 0 0 63 c0 35 3 67 7 71 4 3 72 5 152 4 l146 -3 3 -67z m430 0 l3 -68
-66 0 -65 0 0 63 c0 35 3 67 7 71 4 4 32 6 63 4 l55 -3 3 -67z m-1043 -158 l0
-65 -62 -3 -63 -3 0 71 0 71 63 -3 62 -3 0 -65z m615 0 l0 -70 -155 0 -155 0
0 70 0 70 155 0 155 0 0 -70z m430 0 l0 -70 -65 0 -65 0 0 70 0 70 65 0 65 0
0 -70z m-1045 -160 l0 -65 -60 0 -60 0 -3 68 -3 68 63 -3 63 -3 0 -65z m613 3
l-3 -68 -150 0 -150 0 -3 68 -3 67 156 0 156 0 -3 -67z m430 0 l-3 -68 -60 0
-60 0 -3 68 -3 67 66 0 66 0 -3 -67z m-1043 -153 l0 -65 -62 -3 -63 -3 0 64
c0 35 3 67 7 71 4 4 32 6 63 4 l55 -3 0 -65z m613 -2 l3 -68 -156 0 -155 0 0
63 c0 35 3 67 7 71 4 3 72 5 152 4 l146 -3 3 -67z m430 0 l3 -68 -66 0 -65 0
0 63 c0 35 3 67 7 71 4 4 32 6 63 4 l55 -3 3 -67z m-1043 -158 l0 -65 -54 -3
c-65 -4 -71 3 -71 81 l0 58 63 -3 62 -3 0 -65z m615 0 l0 -70 -155 0 -155 0 0
70 0 70 155 0 155 0 0 -70z m430 0 l0 -70 -65 0 -65 0 0 70 0 70 65 0 65 0 0
-70z m-1042 -157 l-3 -68 -30 0 c-27 0 -32 5 -52 60 -12 33 -22 63 -22 68 -1
4 24 7 54 7 l56 0 -3 -67z m610 0 l-3 -68 -150 0 -150 0 -3 68 -3 67 156 0
156 0 -3 -67z m430 0 l-3 -68 -60 0 -60 0 -3 68 -3 67 66 0 66 0 -3 -67z
m-1110 -225 c278 -863 339 -1462 182 -1795 -35 -77 -109 -157 -172 -189 -85
-43 -78 -89 -78 505 0 343 -4 532 -10 536 -7 4 -10 -175 -10 -531 l0 -536 -32
6 c-56 11 -134 73 -182 144 -158 235 -162 686 -12 1316 60 249 218 766 235
766 4 0 40 -100 79 -222z m70 78 c4 -81 -11 -90 -32 -18 -21 76 -21 84 7 80
20 -3 22 -10 25 -62z m610 -8 l3 -68 -156 0 -155 0 0 70 0 71 153 -3 152 -3 3
-67z m430 0 l3 -68 -66 0 -65 0 0 70 0 71 63 -3 62 -3 3 -67z m-428 -158 l0
-70 -155 0 -155 0 0 70 0 70 155 0 155 0 0 -70z m428 3 l-3 -68 -62 -3 -63 -3
0 71 0 70 65 0 66 0 -3 -67z m-430 -160 l-3 -68 -150 0 -150 0 -3 68 -3 67
156 0 156 0 -3 -67z m430 0 l-3 -68 -60 0 -60 0 -3 68 -3 67 66 0 66 0 -3 -67z
m-428 -153 l0 -70 -155 0 -155 0 0 70 0 70 155 0 155 0 0 -70z m428 -2 l3 -68
-66 0 -65 0 0 70 0 71 63 -3 62 -3 3 -67z m-430 -155 l-3 -68 -152 -3 -153 -3
0 71 0 70 155 0 156 0 -3 -67z m430 0 l-3 -68 -62 -3 -63 -3 0 71 0 70 65 0
66 0 -3 -67z m-428 -158 l0 -65 -155 0 -155 0 0 65 0 65 155 0 155 0 0 -65z
m430 0 l0 -65 -65 0 -65 0 0 65 0 65 65 0 65 0 0 -65z m-432 -157 l3 -68 -156
0 -155 0 0 70 0 71 153 -3 152 -3 3 -67z m430 0 l3 -68 -66 0 -65 0 0 70 0 71
63 -3 62 -3 3 -67z m-428 -158 l0 -70 -155 0 -155 0 0 70 0 70 155 0 155 0 0
-70z m428 3 l-3 -68 -62 -3 -63 -3 0 71 0 70 65 0 66 0 -3 -67z m-430 -155 l3
-68 -156 0 -155 0 0 63 c0 35 3 67 7 71 4 3 72 5 152 4 l146 -3 3 -67z m430 0
l3 -68 -66 0 -65 0 0 63 c0 35 3 67 7 71 4 4 32 6 63 4 l55 -3 3 -67z m-428
-158 l0 -70 -155 0 -155 0 0 70 0 70 155 0 155 0 0 -70z m428 -2 l3 -68 -66 0
-65 0 0 70 0 71 63 -3 62 -3 3 -67z m-430 -155 l-3 -68 -152 -3 -153 -3 0 71
0 70 155 0 156 0 -3 -67z m432 39 c0 -21 -16 -43 -65 -92 l-65 -64 0 92 0 92
65 0 c64 0 65 0 65 -28z m-435 -192 l0 -65 -152 -3 -153 -3 0 64 c0 35 3 67 7
71 4 3 72 5 152 4 l146 -3 0 -65z m-75 -155 c-35 -36 -69 -65 -75 -65 -6 0
-40 29 -75 65 l-64 65 139 0 139 0 -64 -65z m-312 -122 c4 -38 -1 -40 -62 -13
-68 29 -59 51 19 47 37 -2 40 -4 43 -34z m447 -123 l0 -155 -212 -3 -213 -2 0
160 0 160 213 -2 212 -3 0 -155z m171 151 c-6 -9 -129 -61 -146 -61 -11 0 -14
53 -3 63 10 10 155 8 149 -2z m34 -82 c0 -53 -3 -70 -12 -66 -109 43 -148 60
-148 66 0 6 133 67 153 70 4 0 7 -31 7 -70z m-670 1 c0 -4 -93 -44 -152 -66
-32 -11 -22 45 13 82 l31 32 54 -22 c30 -11 54 -23 54 -26z m20 -95 c0 -41 -3
-75 -7 -75 -12 0 -184 72 -180 76 7 7 163 73 175 73 8 1 12 -20 12 -74z m584
31 l70 -32 -86 -37 c-48 -20 -91 -37 -97 -37 -7 0 -11 28 -11 76 l0 76 27 -7
c15 -3 59 -21 97 -39z m-671 -92 c37 -15 64 -31 59 -36 -6 -6 -149 -68 -158
-68 -2 0 -4 32 -4 71 0 81 -9 78 103 33z m737 -35 c0 -53 -3 -70 -12 -66 -92
36 -148 62 -148 68 0 6 134 66 153 68 4 1 7 -31 7 -70z m-650 -94 c0 -41 -3
-75 -7 -75 -14 0 -184 73 -179 77 7 8 161 72 174 72 8 1 12 -20 12 -74z m558
44 c42 -18 81 -35 85 -39 8 -7 -150 -80 -172 -80 -7 0 -11 28 -11 75 0 47 4
75 11 75 6 0 45 -14 87 -31z m-113 -19 c0 -13 -31 -15 -212 -18 -209 -2 -213
-2 -213 18 0 20 4 20 213 18 181 -3 212 -5 212 -18z m3 -112 l-3 -73 -72 -3
-72 -3 -3 53 -3 53 -62 3 -62 3 -3 -53 -3 -53 -70 0 -70 0 -3 73 -3 72 216 0
216 0 -3 -72z m-546 30 c43 -18 75 -35 71 -39 -14 -14 -147 -67 -155 -63 -10
6 -11 134 -1 134 4 0 42 -14 85 -32z m748 -39 c0 -39 -4 -69 -8 -67 -106 43
-152 64 -152 69 0 6 135 66 153 68 4 1 7 -31 7 -70z m-370 -25 l0 -45 -47 3
-48 3 -3 43 -3 42 50 0 51 0 0 -46z m-284 -30 c-6 -15 -106 -21 -106 -6 0 4
24 16 53 27 53 21 67 15 53 -21z m527 19 c26 -9 47 -21 47 -25 0 -5 -24 -8
-52 -6 -46 3 -53 6 -56 26 -4 27 0 27 61 5z"/>
<path d="M5987 6543 c-11 -10 -8 -51 3 -58 6 -4 10 8 10 29 0 37 -2 41 -13 29z"/>
<path d="M6070 6515 c0 -22 4 -34 10 -30 6 3 10 17 10 30 0 13 -4 27 -10 30
-6 4 -10 -8 -10 -30z"/>
<path d="M5980 6360 c0 -16 5 -30 10 -30 6 0 10 14 10 30 0 17 -4 30 -10 30
-5 0 -10 -13 -10 -30z"/>
<path d="M6070 6360 c0 -16 5 -30 10 -30 6 0 10 14 10 30 0 17 -4 30 -10 30
-5 0 -10 -13 -10 -30z"/>
<path d="M5987 6233 c-11 -10 -8 -51 3 -58 6 -4 10 8 10 29 0 37 -2 41 -13 29z"/>
<path d="M6070 6206 c0 -20 5 -36 10 -36 6 0 10 13 10 29 0 17 -4 33 -10 36
-6 4 -10 -8 -10 -29z"/>
<path d="M5987 6073 c-11 -10 -8 -51 3 -58 6 -4 10 8 10 29 0 37 -2 41 -13 29z"/>
<path d="M6070 6045 c0 -22 4 -34 10 -30 6 3 10 17 10 30 0 13 -4 27 -10 30
-6 4 -10 -8 -10 -30z"/>
<path d="M5980 5890 c0 -16 5 -30 10 -30 6 0 10 14 10 30 0 17 -4 30 -10 30
-5 0 -10 -13 -10 -30z"/>
<path d="M6070 5890 c0 -16 5 -30 10 -30 6 0 10 14 10 30 0 17 -4 30 -10 30
-5 0 -10 -13 -10 -30z"/>
<path d="M5987 5763 c-11 -10 -8 -51 3 -58 6 -4 10 8 10 29 0 37 -2 41 -13 29z"/>
<path d="M6070 5735 c0 -22 4 -34 10 -30 6 3 10 17 10 30 0 13 -4 27 -10 30
-6 4 -10 -8 -10 -30z"/>
<path d="M5980 5581 c0 -17 5 -33 10 -36 6 -4 10 8 10 29 0 20 -4 36 -10 36
-5 0 -10 -13 -10 -29z"/>
<path d="M6070 5574 c0 -21 4 -33 10 -29 6 3 10 19 10 36 0 16 -4 29 -10 29
-5 0 -10 -16 -10 -36z"/>
<path d="M5980 5420 c0 -16 5 -30 10 -30 6 0 10 14 10 30 0 17 -4 30 -10 30
-5 0 -10 -13 -10 -30z"/>
<path d="M6070 5420 c0 -16 5 -30 10 -30 6 0 10 14 10 30 0 17 -4 30 -10 30
-5 0 -10 -13 -10 -30z"/>
<path d="M5987 5293 c-11 -10 -8 -51 3 -58 6 -4 10 8 10 29 0 37 -2 41 -13 29z"/>
<path d="M6070 5265 c0 -22 4 -34 10 -30 6 3 10 17 10 30 0 13 -4 27 -10 30
-6 4 -10 -8 -10 -30z"/>
<path d="M5980 5111 c0 -17 5 -33 10 -36 6 -4 10 8 10 29 0 20 -4 36 -10 36
-5 0 -10 -13 -10 -29z"/>
<path d="M6070 5110 c0 -16 5 -30 10 -30 6 0 10 14 10 30 0 17 -4 30 -10 30
-5 0 -10 -13 -10 -30z"/>
<path d="M5980 4950 c0 -16 5 -30 10 -30 6 0 10 14 10 30 0 17 -4 30 -10 30
-5 0 -10 -13 -10 -30z"/>
<path d="M6070 4950 c0 -16 5 -30 10 -30 6 0 10 14 10 30 0 17 -4 30 -10 30
-5 0 -10 -13 -10 -30z"/>
<path d="M5987 4823 c-11 -10 -8 -51 3 -58 6 -4 10 8 10 29 0 37 -2 41 -13 29z"/>
<path d="M6070 4795 c0 -22 4 -34 10 -30 6 3 10 17 10 30 0 13 -4 27 -10 30
-6 4 -10 -8 -10 -30z"/>
<path d="M5987 4663 c-11 -10 -8 -53 3 -53 6 0 10 14 10 30 0 31 -2 35 -13 23z"/>
<path d="M6070 4640 c0 -16 5 -30 10 -30 6 0 10 14 10 30 0 17 -4 30 -10 30
-5 0 -10 -13 -10 -30z"/>
<path d="M5980 4486 c0 -14 5 -28 10 -31 6 -4 10 7 10 24 0 17 -4 31 -10 31
-5 0 -10 -11 -10 -24z"/>
<path d="M6070 4480 c0 -16 5 -30 10 -30 6 0 10 14 10 30 0 17 -4 30 -10 30
-5 0 -10 -13 -10 -30z"/>
<path d="M5987 4353 c-11 -10 -8 -51 3 -58 6 -4 10 8 10 29 0 37 -2 41 -13 29z"/>
<path d="M6070 4325 c0 -22 4 -34 10 -30 6 3 10 17 10 30 0 13 -4 27 -10 30
-6 4 -10 -8 -10 -30z"/>
<path d="M5980 4170 c0 -16 5 -30 10 -30 6 0 10 14 10 30 0 17 -4 30 -10 30
-5 0 -10 -13 -10 -30z"/>
<path d="M6070 4170 c0 -16 5 -30 10 -30 6 0 10 14 10 30 0 17 -4 30 -10 30
-5 0 -10 -13 -10 -30z"/>
<path d="M5987 4043 c-11 -10 -8 -51 3 -58 6 -4 10 8 10 29 0 37 -2 41 -13 29z"/>
<path d="M6070 4016 c0 -20 5 -36 10 -36 6 0 10 13 10 29 0 17 -4 33 -10 36
-6 4 -10 -8 -10 -29z"/>
<path d="M5987 3883 c-11 -10 -8 -51 3 -58 6 -4 10 8 10 29 0 37 -2 41 -13 29z"/>
<path d="M6070 3855 c0 -22 4 -34 10 -30 6 3 10 17 10 30 0 13 -4 27 -10 30
-6 4 -10 -8 -10 -30z"/>
<path d="M5980 3700 c0 -16 5 -30 10 -30 6 0 10 14 10 30 0 17 -4 30 -10 30
-5 0 -10 -13 -10 -30z"/>
<path d="M6070 3700 c0 -16 5 -30 10 -30 6 0 10 14 10 30 0 17 -4 30 -10 30
-5 0 -10 -13 -10 -30z"/>
<path d="M5987 3573 c-11 -10 -8 -51 3 -58 6 -4 10 8 10 29 0 37 -2 41 -13 29z"/>
<path d="M6070 3546 c0 -20 5 -36 10 -36 6 0 10 13 10 29 0 17 -4 33 -10 36
-6 4 -10 -8 -10 -29z"/>
<path d="M5987 3413 c-11 -10 -8 -51 3 -58 6 -4 10 8 10 29 0 37 -2 41 -13 29z"/>
<path d="M6070 3385 c0 -22 4 -34 10 -30 6 3 10 17 10 30 0 13 -4 27 -10 30
-6 4 -10 -8 -10 -30z"/>
<path d="M6070 3230 c0 -16 5 -30 10 -30 6 0 10 14 10 30 0 17 -4 30 -10 30
-5 0 -10 -13 -10 -30z"/>
<path d="M6070 3076 c0 -20 5 -36 10 -36 6 0 10 13 10 29 0 17 -4 33 -10 36
-6 4 -10 -8 -10 -29z"/>
<path d="M6620 6515 c0 -22 4 -34 10 -30 6 3 10 17 10 30 0 13 -4 27 -10 30
-6 4 -10 -8 -10 -30z"/>
<path d="M6700 6521 c0 -17 5 -33 10 -36 6 -4 10 8 10 29 0 20 -4 36 -10 36
-5 0 -10 -13 -10 -29z"/>
<path d="M6620 6360 c0 -16 5 -30 10 -30 6 0 10 14 10 30 0 17 -4 30 -10 30
-5 0 -10 -13 -10 -30z"/>
<path d="M6700 6360 c0 -16 5 -30 10 -30 6 0 10 14 10 30 0 17 -4 30 -10 30
-5 0 -10 -13 -10 -30z"/>
<path d="M6620 6206 c0 -20 5 -36 10 -36 6 0 10 13 10 29 0 17 -4 33 -10 36
-6 4 -10 -8 -10 -29z"/>
<path d="M6707 6233 c-11 -10 -8 -63 3 -63 6 0 10 16 10 35 0 36 -2 40 -13 28z"/>
<path d="M6620 6045 c0 -22 4 -34 10 -30 6 3 10 17 10 30 0 13 -4 27 -10 30
-6 4 -10 -8 -10 -30z"/>
<path d="M6700 6050 c0 -16 5 -30 10 -30 6 0 10 14 10 30 0 17 -4 30 -10 30
-5 0 -10 -13 -10 -30z"/>
<path d="M6620 5890 c0 -16 5 -30 10 -30 6 0 10 14 10 30 0 17 -4 30 -10 30
-5 0 -10 -13 -10 -30z"/>
<path d="M6700 5890 c0 -16 5 -30 10 -30 6 0 10 14 10 30 0 17 -4 30 -10 30
-5 0 -10 -13 -10 -30z"/>
<path d="M6620 5735 c0 -22 4 -34 10 -30 6 3 10 17 10 30 0 13 -4 27 -10 30
-6 4 -10 -8 -10 -30z"/>
<path d="M6707 5763 c-11 -10 -8 -63 3 -63 6 0 10 16 10 35 0 36 -2 40 -13 28z"/>
<path d="M6620 5574 c0 -21 4 -33 10 -29 6 3 10 19 10 36 0 16 -4 29 -10 29
-5 0 -10 -16 -10 -36z"/>
<path d="M6700 5580 c0 -16 5 -30 10 -30 6 0 10 14 10 30 0 17 -4 30 -10 30
-5 0 -10 -13 -10 -30z"/>
<path d="M6620 5420 c0 -16 5 -30 10 -30 6 0 10 14 10 30 0 17 -4 30 -10 30
-5 0 -10 -13 -10 -30z"/>
<path d="M6700 5420 c0 -16 5 -30 10 -30 6 0 10 14 10 30 0 17 -4 30 -10 30
-5 0 -10 -13 -10 -30z"/>
<path d="M6620 5265 c0 -22 4 -34 10 -30 6 3 10 17 10 30 0 13 -4 27 -10 30
-6 4 -10 -8 -10 -30z"/>
<path d="M6707 5293 c-11 -10 -8 -63 3 -63 6 0 10 16 10 35 0 36 -2 40 -13 28z"/>
<path d="M6620 5110 c0 -16 5 -30 10 -30 6 0 10 14 10 30 0 17 -4 30 -10 30
-5 0 -10 -13 -10 -30z"/>
<path d="M6700 5110 c0 -16 5 -30 10 -30 6 0 10 14 10 30 0 17 -4 30 -10 30
-5 0 -10 -13 -10 -30z"/>
<path d="M6620 4950 c0 -16 5 -30 10 -30 6 0 10 14 10 30 0 17 -4 30 -10 30
-5 0 -10 -13 -10 -30z"/>
<path d="M6700 4950 c0 -16 5 -30 10 -30 6 0 10 14 10 30 0 17 -4 30 -10 30
-5 0 -10 -13 -10 -30z"/>
<path d="M6620 4795 c0 -22 4 -34 10 -30 6 3 10 17 10 30 0 13 -4 27 -10 30
-6 4 -10 -8 -10 -30z"/>
<path d="M6700 4795 c0 -19 5 -35 10 -35 6 0 10 16 10 35 0 19 -4 35 -10 35
-5 0 -10 -16 -10 -35z"/>
<path d="M6620 4640 c0 -16 5 -30 10 -30 6 0 10 14 10 30 0 17 -4 30 -10 30
-5 0 -10 -13 -10 -30z"/>
<path d="M6700 4640 c0 -16 5 -30 10 -30 6 0 10 14 10 30 0 17 -4 30 -10 30
-5 0 -10 -13 -10 -30z"/>
<path d="M6620 4480 c0 -16 5 -30 10 -30 6 0 10 14 10 30 0 17 -4 30 -10 30
-5 0 -10 -13 -10 -30z"/>
<path d="M6700 4480 c0 -16 5 -30 10 -30 6 0 10 14 10 30 0 17 -4 30 -10 30
-5 0 -10 -13 -10 -30z"/>
<path d="M6620 4325 c0 -22 4 -34 10 -30 6 3 10 17 10 30 0 13 -4 27 -10 30
-6 4 -10 -8 -10 -30z"/>
<path d="M6700 4325 c0 -19 5 -35 10 -35 6 0 10 16 10 35 0 19 -4 35 -10 35
-5 0 -10 -16 -10 -35z"/>
<path d="M6620 4170 c0 -16 5 -30 10 -30 6 0 10 14 10 30 0 17 -4 30 -10 30
-5 0 -10 -13 -10 -30z"/>
<path d="M6700 4170 c0 -16 5 -30 10 -30 6 0 10 14 10 30 0 17 -4 30 -10 30
-5 0 -10 -13 -10 -30z"/>
<path d="M6620 4016 c0 -20 5 -36 10 -36 6 0 10 13 10 29 0 17 -4 33 -10 36
-6 4 -10 -8 -10 -29z"/>
<path d="M6700 4010 c0 -16 5 -30 10 -30 6 0 10 14 10 30 0 17 -4 30 -10 30
-5 0 -10 -13 -10 -30z"/>
<path d="M6620 3855 c0 -22 4 -34 10 -30 6 3 10 17 10 30 0 13 -4 27 -10 30
-6 4 -10 -8 -10 -30z"/>
<path d="M6700 3861 c0 -17 5 -33 10 -36 6 -4 10 8 10 29 0 20 -4 36 -10 36
-5 0 -10 -13 -10 -29z"/>
<path d="M6620 3700 c0 -16 5 -30 10 -30 6 0 10 14 10 30 0 17 -4 30 -10 30
-5 0 -10 -13 -10 -30z"/>
<path d="M6700 3700 c0 -16 5 -30 10 -30 6 0 10 14 10 30 0 17 -4 30 -10 30
-5 0 -10 -13 -10 -30z"/>
<path d="M6620 3546 c0 -20 5 -36 10 -36 6 0 10 13 10 29 0 17 -4 33 -10 36
-6 4 -10 -8 -10 -29z"/>
<path d="M6707 3573 c-11 -10 -8 -63 3 -63 6 0 10 16 10 35 0 36 -2 40 -13 28z"/>
<path d="M6620 3385 c0 -22 4 -34 10 -30 6 3 10 17 10 30 0 13 -4 27 -10 30
-6 4 -10 -8 -10 -30z"/>
<path d="M6700 3390 c0 -16 5 -30 10 -30 6 0 10 14 10 30 0 17 -4 30 -10 30
-5 0 -10 -13 -10 -30z"/>
<path d="M6620 3230 c0 -16 5 -30 10 -30 6 0 10 14 10 30 0 17 -4 30 -10 30
-5 0 -10 -13 -10 -30z"/>
<path d="M6700 3230 c0 -16 5 -30 10 -30 6 0 10 14 10 30 0 17 -4 30 -10 30
-5 0 -10 -13 -10 -30z"/>
<path d="M6620 3075 c0 -22 4 -34 10 -30 6 3 10 17 10 30 0 13 -4 27 -10 30
-6 4 -10 -8 -10 -30z"/>
<path d="M6707 3103 c-11 -10 -8 -63 3 -63 6 0 10 16 10 35 0 36 -2 40 -13 28z"/>
<path d="M6620 2914 c0 -21 4 -33 10 -29 6 3 10 19 10 36 0 16 -4 29 -10 29
-5 0 -10 -16 -10 -36z"/>
<path d="M6700 2920 c0 -16 5 -30 10 -30 6 0 10 14 10 30 0 17 -4 30 -10 30
-5 0 -10 -13 -10 -30z"/>
<path d="M6620 2760 c0 -16 5 -30 10 -30 6 0 10 14 10 30 0 17 -4 30 -10 30
-5 0 -10 -13 -10 -30z"/>
<path d="M6700 2760 c0 -16 5 -30 10 -30 6 0 10 14 10 30 0 17 -4 30 -10 30
-5 0 -10 -13 -10 -30z"/>
<path d="M6620 2605 c0 -22 4 -34 10 -30 6 3 10 17 10 30 0 13 -4 27 -10 30
-6 4 -10 -8 -10 -30z"/>
<path d="M6707 2633 c-11 -10 -8 -63 3 -63 6 0 10 16 10 35 0 36 -2 40 -13 28z"/>
<path d="M6620 2444 c0 -21 4 -33 10 -29 6 3 10 19 10 36 0 16 -4 29 -10 29
-5 0 -10 -16 -10 -36z"/>
<path d="M6700 2450 c0 -16 5 -30 10 -30 6 0 10 14 10 30 0 17 -4 30 -10 30
-5 0 -10 -13 -10 -30z"/>
<path d="M6620 2290 c0 -16 5 -30 10 -30 6 0 10 14 10 30 0 17 -4 30 -10 30
-5 0 -10 -13 -10 -30z"/>
<path d="M6700 2290 c0 -16 5 -30 10 -30 6 0 10 14 10 30 0 17 -4 30 -10 30
-5 0 -10 -13 -10 -30z"/>
<path d="M6620 2135 c0 -22 4 -34 10 -30 6 3 10 17 10 30 0 13 -4 27 -10 30
-6 4 -10 -8 -10 -30z"/>
<path d="M6707 2163 c-11 -10 -8 -63 3 -63 6 0 10 16 10 35 0 36 -2 40 -13 28z"/>
<path d="M6620 1980 c0 -16 5 -30 10 -30 6 0 10 14 10 30 0 17 -4 30 -10 30
-5 0 -10 -13 -10 -30z"/>
<path d="M6700 1980 c0 -16 5 -30 10 -30 6 0 10 14 10 30 0 17 -4 30 -10 30
-5 0 -10 -13 -10 -30z"/>
<path d="M3604 4868 c-4 -7 -7 -26 -6 -43 2 -23 -6 -40 -28 -63 -33 -35 -37
-59 -15 -101 22 -44 71 -55 113 -25 47 33 47 99 2 131 -14 10 -20 26 -20 52 0
49 -28 79 -46 49z m42 -153 c8 -20 -13 -45 -32 -38 -14 5 -19 34 -7 46 11 12
33 7 39 -8z"/>
<path d="M7372 4843 c-6 -10 -13 -33 -17 -51 -4 -19 -29 -57 -59 -90 -90 -97
-89 -92 -45 -307 17 -82 31 -163 32 -180 2 -29 4 -30 55 -35 l54 -5 -31 -23
c-17 -12 -31 -30 -31 -40 0 -13 6 -11 26 11 69 75 160 61 238 -36 l31 -39 3
-504 3 -504 -26 -10 c-33 -13 -32 -38 3 -51 26 -10 26 -11 8 -25 -11 -8 -24
-14 -29 -14 -4 0 -7 -10 -5 -22 2 -15 11 -24 26 -26 29 -4 28 -20 -3 -32 -14
-5 -25 -16 -25 -25 0 -9 11 -20 25 -25 l25 -10 0 -395 0 -395 -22 0 c-13 0
-28 -4 -35 -8 -7 -4 -22 -87 -37 -202 -14 -107 -39 -303 -56 -434 -17 -131
-29 -245 -26 -252 4 -11 45 -14 200 -14 107 0 197 4 200 9 3 5 -5 92 -18 193
-14 100 -39 296 -57 433 -18 138 -36 256 -42 263 -5 6 -20 12 -33 12 l-24 0 0
399 0 400 22 3 c33 4 35 36 4 48 -32 12 -33 22 -3 35 12 6 22 17 22 25 0 8
-10 19 -22 25 -13 5 -23 15 -23 22 0 6 10 13 23 15 14 2 22 10 22 23 0 13 -8
21 -22 23 l-23 3 0 501 0 501 25 43 c28 48 96 94 139 94 38 0 93 -25 108 -49
14 -23 28 -28 28 -10 0 6 -14 24 -31 40 l-31 29 51 0 c28 0 52 3 52 8 1 4 3
18 5 32 2 14 17 97 34 185 17 89 28 174 25 191 -3 19 -30 59 -65 99 -40 45
-65 84 -74 114 -18 64 -40 65 -61 1 -11 -32 -37 -74 -70 -111 -81 -91 -81 -90
-46 -284 17 -92 31 -171 31 -177 0 -5 -26 -8 -57 -6 l-58 3 -3 80 c-3 81 -13
108 -37 98 -10 -3 -15 -29 -17 -91 l-3 -87 -60 0 c-48 0 -59 3 -56 15 1 8 16
86 32 173 33 187 33 190 -54 285 -33 36 -58 73 -62 93 -12 56 -36 75 -53 42z
m81 -182 c31 -35 54 -67 51 -72 -3 -5 -54 -9 -115 -9 -83 0 -109 3 -109 13 0
11 111 140 116 134 0 -1 27 -31 57 -66z m558 -40 c10 -13 16 -27 13 -32 -7
-12 -211 -11 -219 0 -3 6 20 39 52 74 l58 64 39 -41 c21 -22 47 -52 57 -65z
m-686 -61 c10 -17 52 -301 45 -305 -8 -5 -50 32 -50 43 0 4 -9 59 -20 122 -11
63 -20 123 -20 133 0 19 34 24 45 7z m107 5 c2 -3 -3 -60 -13 -127 -10 -68
-19 -129 -19 -137 0 -42 -15 12 -31 116 -25 160 -26 153 19 153 21 0 41 -2 44
-5z m72 -3 c3 -5 -6 -69 -19 -143 -20 -107 -29 -138 -46 -152 -12 -10 -24 -15
-26 -13 -5 4 34 275 43 304 4 14 40 17 48 4z m368 -117 c9 -66 19 -135 23
-152 4 -25 2 -33 -8 -33 -28 0 -40 32 -63 158 -29 161 -30 154 3 150 27 -3 28
-5 45 -123z m84 93 c-3 -18 -10 -73 -17 -123 -12 -97 -17 -120 -24 -113 -8 7
-44 252 -38 261 2 4 22 7 45 7 40 0 40 0 34 -32z m74 17 c0 -47 -45 -263 -58
-277 -33 -39 -39 -22 -26 70 32 217 34 222 60 222 15 0 24 -6 24 -15z m-402
-422 c3 -46 -10 -57 -28 -23 -6 11 -27 31 -48 45 l-37 26 55 -3 55 -3 3 -42z
m151 44 c-2 -2 -25 -23 -51 -47 l-48 -43 0 47 0 46 52 0 c28 0 49 -1 47 -3z
m-75 -2284 c4 -32 9 -75 13 -95 l6 -38 -68 0 -68 0 7 63 c14 129 13 127 61
127 l42 0 7 -57z m48 -368 c15 -115 27 -218 28 -227 0 -16 -12 -18 -125 -18
-121 0 -125 1 -125 22 0 35 50 421 56 430 3 5 36 8 72 6 l66 -3 28 -210z m41
-312 c3 -27 3 -51 0 -55 -7 -12 -271 -10 -278 2 -3 6 -3 30 1 55 l6 45 133 0
132 0 6 -47z"/>
<path d="M7616 1653 c-2 -10 -7 -85 -10 -168 -6 -183 8 -143 19 50 7 125 4
161 -9 118z"/>
<path d="M7679 1665 c-9 -17 13 -325 24 -325 6 0 6 46 2 123 -9 141 -18 216
-26 202z"/>
<path d="M3468 4524 c-54 -41 -98 -81 -98 -88 0 -28 112 -472 122 -483 15 -18
252 -18 265 0 5 6 31 104 58 217 27 113 52 209 57 215 4 5 8 21 8 35 0 20 -20
40 -99 103 -98 76 -101 77 -158 77 -57 0 -60 -2 -155 -76z m106 -12 c-37 -64
-49 -74 -85 -70 l-34 3 60 47 c70 55 83 59 59 20z m89 -16 c15 -24 27 -46 27
-50 0 -3 -29 -6 -65 -6 -38 0 -65 4 -65 10 0 17 52 90 64 90 6 0 23 -20 39
-44z m60 3 c63 -50 68 -59 28 -59 -24 0 -36 8 -61 44 -48 70 -41 73 33 15z
m-182 -289 c15 -194 13 -246 -9 -204 -8 17 -102 390 -102 408 0 4 21 6 48 4
l47 -3 16 -205z m159 173 c0 -82 -30 -377 -38 -385 -5 -5 -27 -8 -48 -6 l-39
3 -12 165 c-6 91 -14 186 -17 213 l-5 47 79 0 80 0 0 -37z m116 20 c-3 -10
-26 -103 -52 -208 -25 -104 -49 -194 -51 -198 -3 -5 -9 -5 -14 0 -6 6 -3 87 6
204 8 107 15 200 15 207 0 8 17 12 51 12 43 0 50 -2 45 -17z"/>
<path d="M3471 3874 c-23 -30 -27 -64 -9 -82 19 -19 28 -14 44 24 17 42 37 42
68 1 20 -28 21 -39 24 -454 l3 -425 -45 -42 c-42 -38 -46 -47 -46 -88 0 -30 7
-54 20 -70 21 -28 26 73 -45 -1048 -14 -217 -26 -438 -27 -490 l-3 -95 166 -3
c128 -2 168 0 171 10 2 7 1 72 -4 143 -16 258 -49 777 -69 1109 l-21 339 21
38 c12 20 21 50 21 65 0 38 -33 91 -65 106 l-25 11 0 424 c0 342 3 430 14 457
20 49 76 62 76 17 0 -17 18 -41 32 -41 4 0 12 9 17 19 13 24 -4 78 -29 91 -34
18 -86 12 -111 -14 l-23 -24 -29 24 c-41 34 -98 33 -126 -2z m194 -1029 c14
-13 25 -31 25 -40 0 -20 -44 -65 -63 -65 -26 0 -67 41 -67 66 0 29 33 64 60
64 12 0 32 -11 45 -25z m-4 -425 c10 -146 20 -320 24 -387 l8 -123 -65 0 c-36
0 -67 2 -69 4 -2 3 6 163 18 358 12 194 22 368 22 386 1 29 4 33 23 30 23 -3
23 -7 39 -268z m32 -529 c5 -1 5 -5 2 -11 -8 -12 -132 -13 -139 -1 -3 4 -4 10
-2 12 3 3 90 3 139 0z m2 -43 c5 -5 40 -619 36 -624 -5 -4 -221 -6 -221 -1 2
60 41 620 44 625 4 7 134 7 141 0z m43 -670 c-3 -22 -7 -23 -115 -26 l-113 -3
0 26 0 25 116 0 c114 0 115 0 112 -22z"/>
<path d="M3617 2333 c-11 -11 -8 -353 3 -353 6 0 10 67 10 180 0 99 -1 180 -3
180 -2 0 -7 -3 -10 -7z"/>
<path d="M3576 1698 c-11 -140 -16 -413 -7 -393 9 22 27 465 18 465 -2 0 -7
-33 -11 -72z"/>
<path d="M3654 1673 c3 -49 9 -154 12 -235 4 -89 11 -148 17 -148 10 0 9 32
-9 358 -4 63 -11 112 -17 112 -6 0 -7 -32 -3 -87z"/>
<path d="M3003 3268 c-14 -17 -99 -272 -152 -455 -160 -554 -184 -1005 -65
-1224 39 -71 122 -146 178 -161 l46 -12 0 -148 c0 -196 19 -198 22 -2 l3 146
52 20 c108 40 196 168 229 333 20 97 22 310 5 450 -29 237 -112 570 -223 900
-54 158 -70 184 -95 153z m65 -235 c238 -722 276 -1248 106 -1470 -27 -36 -84
-77 -121 -88 l-23 -6 0 410 c0 267 -3 411 -10 411 -7 0 -10 -143 -10 -410 0
-225 -3 -410 -7 -410 -5 0 -31 14 -60 30 -206 118 -236 529 -84 1135 41 162
152 525 161 525 3 0 25 -57 48 -127z"/>
</g>
</svg>
