<svg xmlns="http://www.w3.org/2000/svg" width="1066.667" height="800" preserveAspectRatio="xMidYMid meet" version="1.0" viewBox="0 0 800 600"><g fill="#000" stroke="none"><path d="M1885 4692 c-119 -41 -215 -126 -265 -235 -132 -283 47 -600 360 -638 56 -6 763 -9 2060 -7 1940 3 1976 3 2030 23 134 48 246 160 288 288 76 233 -50 488 -280 566 l-62 21 -2040 0 c-1910 -1 -2044 -2 -2091 -18z m4149 -104 c166 -67 252 -177 250 -323 0 -55 -6 -81 -26 -120 -56 -108 -181 -193 -318 -215 -90 -14 -3820 -14 -3910 0 -137 22 -262 107 -318 215 -30 59 -36 167 -13 225 49 120 168 210 316 240 22 4 920 7 1995 6 l1955 -1 69 -27z" transform="translate(0.000000,600.000000) scale(0.100000,-0.100000)"/><path d="M1885 3662 c-119 -41 -215 -126 -265 -235 -132 -283 47 -600 360 -638 56 -6 763 -9 2060 -7 1940 3 1976 3 2030 23 134 48 246 160 288 288 76 233 -50 488 -280 566 l-62 21 -2040 0 c-1910 -1 -2044 -2 -2091 -18z m4139 -114 c166 -67 252 -177 250 -323 0 -55 -6 -81 -26 -120 -56 -108 -181 -193 -318 -215 -90 -14 -3820 -14 -3910 0 -137 22 -262 107 -318 215 -30 59 -36 167 -13 225 49 120 168 210 316 240 22 4 920 7 1995 6 l1955 -1 69 -27z" transform="translate(0.000000,600.000000) scale(0.100000,-0.100000)"/><path d="M1875 2602 c-119 -41 -215 -126 -265 -235 -132 -283 47 -600 360 -638 56 -6 763 -9 2060 -7 1940 3 1976 3 2030 23 134 48 246 160 288 288 76 233 -50 488 -280 566 l-62 21 -2040 0 c-1910 -1 -2044 -2 -2091 -18z m4149 -114 c166 -67 252 -177 250 -323 0 -55 -6 -81 -26 -120 -56 -108 -181 -193 -318 -215 -90 -14 -3820 -14 -3910 0 -137 22 -262 107 -318 215 -30 59 -36 167 -13 225 49 120 168 210 316 240 22 4 920 7 1995 6 l1955 -1 69 -27z" transform="translate(0.000000,600.000000) scale(0.100000,-0.100000)"/></g></svg>