<?xml version="1.0" standalone="no"?>
<!DOCTYPE svg PUBLIC "-//W3C//DTD SVG 20010904//EN"
 "http://www.w3.org/TR/2001/REC-SVG-20010904/DTD/svg10.dtd">
<svg version="1.0" xmlns="http://www.w3.org/2000/svg"
 width="1080.000000pt" height="1080.000000pt" viewBox="0 0 1080.000000 1080.000000"
 preserveAspectRatio="xMidYMid meet">

<g transform="translate(0.000000,1080.000000) scale(0.100000,-0.100000)"
fill="#000000" stroke="none">
<path d="M2312 5945 c3 -3440 4 -3695 20 -3711 57 -57 377 8 606 124 191 96
386 268 511 451 76 112 121 203 165 334 70 209 69 191 73 1020 l4 747 357 0
c313 0 368 -3 447 -19 95 -21 226 -71 260 -100 11 -10 43 -30 70 -46 32 -18
175 -152 402 -378 194 -193 357 -353 363 -357 5 -3 317 -312 692 -686 645
-642 689 -684 798 -756 178 -117 295 -169 470 -209 291 -67 728 -7 1012 138
79 40 196 130 257 197 l24 26 -68 72 c-104 111 -543 552 -1411 1418 -433 432
-793 795 -801 807 -17 26 -31 17 122 78 115 47 294 140 403 211 182 119 404
319 538 484 276 341 464 782 515 1205 17 149 15 457 -5 600 -94 663 -480 1268
-1044 1636 -282 184 -603 309 -947 371 -151 26 -815 36 -2523 37 l-1312 1 2
-3695z m3713 2282 c83 -20 212 -70 275 -105 174 -100 325 -260 410 -437 34
-70 43 -102 57 -202 48 -365 -39 -658 -265 -889 -128 -131 -256 -209 -424
-258 -169 -49 -188 -49 -1317 -42 -580 4 -1058 9 -1063 12 -4 3 -8 442 -8 975
l0 970 1133 -4 c1022 -3 1139 -5 1202 -20z"/>
</g>
</svg>
