<?xml version="1.0" standalone="no"?>
<!DOCTYPE svg PUBLIC "-//W3C//DTD SVG 20010904//EN"
 "http://www.w3.org/TR/2001/REC-SVG-20010904/DTD/svg10.dtd">
<svg version="1.0" xmlns="http://www.w3.org/2000/svg"
 width="1080.000000pt" height="1080.000000pt" viewBox="0 0 1080.000000 1080.000000"
 preserveAspectRatio="xMidYMid meet">

<g transform="translate(0.000000,1080.000000) scale(0.100000,-0.100000)"
fill="#000000" stroke="none">
<path d="M5620 8727 c0 -62 -23 -152 -55 -213 -18 -34 -19 -104 -4 -171 10
-44 9 -53 -12 -93 -16 -32 -23 -64 -25 -109 l-1 -65 -44 -4 c-47 -4 -73 -4
-143 -1 -35 2 -52 -3 -79 -23 -44 -34 -57 -81 -57 -206 l0 -100 -35 -6 c-119
-23 -362 -125 -505 -213 -257 -159 -457 -352 -623 -603 -68 -103 -160 -278
-206 -392 -17 -43 -29 -58 -48 -63 -24 -6 -24 -7 -8 -25 16 -17 15 -23 -10
-99 l-27 -81 -272 2 -271 3 0 160 c0 187 2 191 99 256 33 22 61 46 61 52 0 9
-51 13 -177 15 -205 3 -215 -2 -123 -63 30 -20 66 -50 80 -67 24 -29 25 -33
25 -194 l0 -164 -70 0 c-117 0 -110 23 -110 -385 l0 -345 -60 -178 c-241 -705
-375 -1286 -398 -1717 -26 -493 54 -812 251 -992 50 -45 128 -91 185 -108 l22
-6 0 -237 c0 -199 3 -241 16 -260 l15 -22 2628 0 c2533 0 2628 1 2644 18 16
17 17 178 17 2109 0 1930 -1 2092 -16 2104 -10 8 -49 16 -88 19 l-71 5 -3 155
c-3 183 2 194 97 260 97 65 90 70 -114 70 -203 0 -211 -5 -116 -69 100 -68
102 -73 99 -258 l-3 -158 -270 0 -270 0 -27 79 c-25 72 -25 80 -11 95 15 15
15 17 -9 25 -20 7 -32 26 -54 80 -130 334 -382 664 -669 876 -197 146 -386
237 -665 319 -24 7 -25 10 -30 127 -4 92 -9 126 -23 147 -27 42 -63 61 -113
58 -56 -3 -93 -3 -146 0 l-43 2 3 55 c3 42 -2 69 -23 117 -23 55 -25 68 -16
102 19 66 13 127 -19 207 -21 52 -33 102 -37 156 -5 69 -9 80 -24 80 -17 0
-19 -8 -19 -63z m52 -192 c29 -61 33 -116 14 -176 -17 -51 -17 -51 10 -106 31
-63 41 -131 25 -161 -9 -17 -19 -20 -83 -18 -71 1 -72 1 -80 31 -10 37 -3 73
29 147 25 56 25 58 9 104 -25 75 -24 86 30 212 11 24 18 32 21 22 3 -8 14 -33
25 -55z m-312 -597 c0 -5 9 -21 20 -37 18 -23 20 -39 18 -102 l-3 -74 -40 0
-40 0 -3 109 c-3 113 7 148 34 125 8 -6 14 -16 14 -21z m300 8 c0 -7 9 -25 20
-39 16 -20 20 -40 20 -106 l0 -81 -55 0 -55 0 0 89 c0 66 4 92 15 101 8 7 15
21 15 30 0 18 18 31 33 23 4 -2 7 -10 7 -17z m-150 -5 c0 -10 7 -24 15 -31 11
-9 15 -35 15 -101 l0 -89 -55 0 -55 0 0 81 c0 66 4 86 20 106 11 14 20 32 20
39 0 8 9 14 20 14 13 0 20 -7 20 -19z m308 -5 c2 -11 10 -26 18 -34 10 -9 14
-39 14 -98 l0 -84 -55 0 -55 0 0 89 c0 53 4 93 11 96 5 4 14 18 20 32 11 29
42 28 47 -1z m147 -96 l0 -115 -37 -3 -38 -3 0 85 c0 62 4 89 15 100 8 8 15
21 15 29 0 19 11 28 30 25 12 -3 15 -22 15 -118z m15 -174 c6 -8 37 -20 68
-26 168 -35 410 -139 574 -247 201 -133 395 -325 527 -523 57 -86 201 -363
201 -387 0 -11 -298 -13 -1711 -13 l-1710 0 7 22 c14 46 104 225 151 303 203
337 523 614 873 757 110 45 251 88 289 88 11 0 29 9 42 20 23 18 41 19 350 20
273 0 329 -2 339 -14z m-2726 -954 c4 -7 -46 -60 -74 -77 -10 -6 -92 70 -83
78 9 10 151 8 157 -1z m4929 1 c4 -3 -12 -23 -34 -44 l-41 -38 -44 36 c-24 20
-41 40 -38 45 6 9 148 11 157 1z m-3973 -291 c0 -4 -18 -26 -40 -47 -22 -21
-40 -44 -40 -50 0 -6 18 -29 40 -50 22 -21 40 -43 40 -47 0 -4 -81 -8 -180 -8
-208 0 -194 -9 -154 109 14 42 27 82 29 89 3 9 43 12 155 12 82 0 150 -4 150
-8z m460 2 c0 -4 -18 -23 -40 -44 -22 -21 -40 -43 -40 -50 0 -7 19 -34 43 -59
l42 -46 -174 -3 c-96 -1 -176 0 -179 3 -3 3 16 28 43 55 l49 50 -47 45 c-26
24 -47 47 -47 50 0 3 79 5 175 5 96 0 175 -3 175 -6z m460 2 c0 -2 -21 -24
-46 -50 l-47 -46 49 -53 49 -52 -174 -3 c-96 -1 -176 0 -179 3 -3 3 13 25 36
48 23 24 42 47 42 53 0 5 -18 28 -40 49 -22 21 -40 43 -40 47 0 4 79 8 175 8
96 0 175 -2 175 -4z m415 -47 l-47 -50 49 -52 48 -52 -174 -3 c-96 -1 -176 0
-179 3 -3 3 13 25 36 48 23 24 42 47 42 53 0 5 -18 28 -40 49 -22 21 -40 43
-40 47 0 4 79 8 176 8 l177 0 -48 -51z m495 43 c0 -4 -18 -26 -40 -47 -22 -21
-40 -44 -40 -50 0 -6 18 -29 40 -50 22 -21 40 -43 40 -47 0 -4 -76 -8 -170 -8
-93 0 -170 4 -170 8 0 4 18 26 40 47 22 21 40 44 40 50 0 6 -18 29 -40 50 -22
21 -40 43 -40 47 0 4 77 8 170 8 94 0 170 -4 170 -8z m460 0 c0 -4 -18 -26
-40 -47 -22 -21 -40 -44 -40 -50 0 -6 18 -29 40 -50 22 -21 40 -43 40 -47 0
-4 -76 -8 -170 -8 -114 0 -170 4 -170 11 0 6 14 22 30 36 56 46 57 60 11 107
-23 23 -41 45 -41 49 0 4 77 7 170 7 94 0 170 -4 170 -8z m460 0 c0 -4 -18
-26 -40 -47 -22 -21 -40 -44 -40 -50 0 -6 18 -29 40 -50 22 -21 40 -43 40 -47
0 -4 -76 -8 -170 -8 -106 0 -170 4 -170 10 0 5 18 29 40 52 22 24 40 46 40 49
0 4 -20 25 -45 48 -25 23 -45 44 -45 46 0 3 79 5 175 5 96 0 175 -4 175 -8z
m446 -92 c18 -52 30 -98 27 -102 -2 -5 -83 -8 -179 -8 -194 0 -199 2 -139 60
19 19 35 42 35 51 0 9 -18 33 -40 53 -22 20 -40 38 -40 41 0 3 69 4 152 3
l153 -3 31 -95z m-3086 45 l44 -45 -49 -50 -49 -50 -48 47 -48 47 47 48 c26
26 50 48 53 48 3 0 26 -20 50 -45z m458 0 l47 -44 -50 -51 -50 -50 -50 50 -49
50 44 45 c24 25 48 45 53 45 4 0 29 -20 55 -45z m455 -3 l47 -48 -49 -48 -49
-48 -46 46 c-25 26 -46 50 -46 53 0 9 82 93 90 93 3 0 27 -22 53 -48z m455 5
c23 -23 42 -47 42 -53 0 -5 -20 -29 -44 -53 l-43 -43 -37 33 c-63 55 -64 65
-15 115 24 24 46 44 49 44 3 0 25 -19 48 -43z m460 0 c23 -23 42 -48 42 -54 0
-6 -21 -30 -46 -53 l-46 -42 -44 43 c-24 24 -44 48 -44 53 0 11 80 96 90 96 3
0 25 -19 48 -43z m460 0 c23 -23 42 -47 42 -53 0 -5 -20 -30 -45 -54 l-45 -44
-50 49 -50 49 47 48 c26 26 50 48 53 48 3 0 25 -19 48 -43z m472 -11 l34 -36
-49 -50 -49 -50 -48 47 -48 47 47 48 c52 53 56 52 113 -6z m-3200 -181 c0 -3
-13 -24 -30 -47 -39 -53 -38 -74 5 -118 l35 -36 -36 -42 c-33 -40 -39 -42 -89
-42 -48 0 -56 3 -84 35 -17 20 -31 40 -31 46 0 6 14 24 30 39 30 28 42 82 20
95 -5 3 -10 13 -10 21 0 10 14 14 54 14 39 0 60 5 77 20 22 18 59 27 59 15z
m340 0 c0 -3 -13 -24 -30 -47 -39 -53 -38 -74 6 -119 l36 -37 -37 -41 c-35
-38 -41 -41 -90 -41 -50 0 -56 3 -84 37 -17 21 -31 42 -31 47 0 5 14 21 31 36
39 32 41 68 5 114 -14 19 -26 39 -26 45 0 7 39 11 110 11 61 0 110 -2 110 -5z
m340 0 c0 -3 -13 -24 -30 -47 -39 -53 -38 -74 6 -119 l36 -37 -37 -41 c-35
-38 -41 -41 -89 -41 -49 0 -55 3 -84 39 -39 48 -39 54 -6 75 47 31 48 91 3
132 -41 37 -26 44 91 44 61 0 110 -2 110 -5z m340 -6 c0 -6 -13 -27 -30 -46
-39 -44 -38 -69 6 -114 l36 -37 -37 -41 c-33 -37 -42 -41 -83 -41 -40 0 -51 5
-84 37 -21 20 -38 41 -38 46 0 4 13 19 29 33 17 14 33 33 36 44 7 21 -15 69
-39 89 -9 8 -16 20 -16 27 0 11 23 14 110 14 74 0 110 -4 110 -11z m340 0 c0
-6 -13 -27 -30 -46 -39 -44 -38 -64 7 -113 l36 -41 -38 -39 c-34 -35 -45 -40
-84 -40 -39 0 -51 5 -83 37 -21 20 -38 40 -38 44 0 4 16 23 36 43 30 30 35 41
29 64 -3 15 -17 38 -31 53 -42 44 -34 49 86 49 74 0 110 -4 110 -11z m340 -3
c0 -7 -7 -19 -16 -27 -24 -20 -46 -68 -39 -89 3 -11 19 -30 36 -44 16 -14 29
-28 29 -32 0 -5 -17 -25 -37 -46 -32 -33 -43 -38 -83 -38 -40 0 -51 5 -85 40
l-39 40 37 38 c45 46 46 71 7 115 -16 19 -30 40 -30 46 0 7 36 11 110 11 87 0
110 -3 110 -14z m340 0 c0 -7 -7 -19 -16 -27 -49 -41 -49 -98 0 -137 14 -11
26 -24 26 -28 0 -5 -16 -26 -35 -46 -31 -34 -41 -38 -84 -38 -44 0 -52 4 -86
41 l-37 41 36 37 c44 45 45 66 6 117 -16 21 -30 42 -30 47 0 4 50 7 110 7 87
0 110 -3 110 -14z m340 1 c0 -8 -9 -22 -19 -31 -45 -41 -44 -101 3 -132 33
-21 33 -31 -5 -77 -28 -34 -34 -37 -84 -37 -49 0 -55 3 -90 41 l-37 41 36 37
c44 45 45 66 6 119 -16 23 -30 44 -30 47 0 3 50 5 110 5 85 0 110 -3 110 -13z
m340 1 c0 -6 -6 -19 -14 -27 -8 -9 -21 -29 -30 -45 -13 -26 -13 -33 0 -57 8
-16 23 -33 34 -39 28 -15 25 -34 -11 -75 -28 -32 -36 -35 -84 -35 -49 0 -55 3
-90 41 l-37 41 36 37 c44 45 45 66 6 119 -16 23 -30 44 -30 47 0 3 50 5 110 5
77 0 110 -3 110 -12z m340 1 c0 -6 -11 -25 -25 -43 -34 -45 -32 -81 5 -116 38
-35 38 -46 -2 -87 -28 -29 -38 -33 -84 -33 -49 0 -55 3 -89 42 l-36 42 36 34
c37 35 44 65 22 97 -8 11 -22 32 -32 48 l-17 27 111 0 c72 0 111 -4 111 -11z
m350 6 c0 -3 -13 -24 -30 -47 -39 -54 -38 -79 6 -121 l37 -34 -38 -42 c-35
-38 -41 -41 -90 -41 -48 0 -56 3 -84 35 -36 41 -39 60 -11 75 11 6 27 25 36
42 16 30 15 32 -15 75 -17 24 -31 48 -31 53 0 6 46 10 110 10 61 0 110 -2 110
-5z m167 -15 c19 -15 41 -20 84 -20 63 0 67 -4 44 -34 -24 -31 -18 -57 21 -97
l36 -37 -37 -41 c-35 -38 -41 -41 -90 -41 -50 0 -56 3 -84 37 -38 46 -38 56
-6 77 50 33 50 94 1 135 -18 15 -21 41 -5 41 6 0 22 -9 36 -20z m-3441 -83 c5
-14 -4 -29 -30 -53 -43 -39 -44 -53 -11 -92 14 -17 25 -33 25 -36 0 -3 -27 -6
-60 -6 -65 0 -72 8 -40 42 29 32 25 61 -15 97 -19 17 -35 35 -35 40 0 4 19 29
41 55 l42 47 38 -37 c22 -21 42 -47 45 -57z m344 -7 c0 -9 -16 -30 -35 -49
-42 -39 -43 -50 -10 -89 14 -17 25 -33 25 -36 0 -3 -27 -6 -60 -6 -33 0 -60 3
-60 8 0 4 9 18 20 32 28 36 25 62 -15 100 -19 19 -35 37 -35 41 0 3 19 27 41
53 l42 47 43 -42 c24 -24 44 -50 44 -59z m340 0 c0 -9 -16 -31 -35 -50 -42
-40 -43 -49 -10 -88 14 -17 25 -33 25 -36 0 -3 -27 -6 -60 -6 -33 0 -60 3 -60
8 0 4 9 18 20 32 28 36 25 62 -15 100 -19 19 -35 37 -35 41 0 3 19 27 41 53
l42 47 43 -42 c24 -24 44 -50 44 -59z m312 45 c36 -39 35 -54 -7 -95 -42 -40
-43 -49 -10 -88 14 -17 25 -33 25 -36 0 -3 -27 -6 -60 -6 -33 0 -60 3 -60 6 0
3 11 20 25 38 14 18 25 37 25 42 0 6 -16 25 -35 44 -19 19 -35 41 -35 50 0 9
16 35 36 59 40 46 40 46 96 -14z m368 -46 c0 -8 -16 -30 -35 -49 -19 -19 -35
-38 -35 -44 0 -5 11 -24 25 -42 14 -18 25 -35 25 -38 0 -3 -27 -6 -60 -6 -33
0 -60 3 -60 6 0 3 11 20 25 38 14 18 25 37 25 42 0 6 -16 25 -35 44 -19 19
-35 41 -35 51 0 9 19 36 42 60 l42 43 38 -45 c21 -24 38 -51 38 -60z m672 28
l20 -29 -36 -37 c-41 -42 -44 -65 -16 -101 11 -14 20 -28 20 -32 0 -5 -27 -8
-60 -8 -33 0 -60 3 -60 6 0 3 11 19 25 36 33 39 32 48 -10 88 -19 19 -35 41
-35 49 0 8 19 34 42 58 l42 43 24 -23 c13 -12 33 -35 44 -50z m340 0 l20 -29
-36 -37 c-41 -42 -45 -68 -16 -99 32 -34 25 -42 -40 -42 -33 0 -60 3 -60 6 0
3 11 19 25 36 33 39 32 54 -10 91 -19 17 -35 37 -35 44 0 7 19 34 42 59 l41
45 25 -23 c13 -13 33 -36 44 -51z m358 -26 c0 -6 -16 -25 -35 -42 -40 -36 -44
-65 -15 -97 32 -34 25 -42 -35 -42 -60 0 -66 8 -35 47 28 36 25 50 -15 86 -19
17 -35 37 -35 44 0 7 19 34 42 59 l42 46 43 -45 c24 -25 43 -50 43 -56z
m-1053 40 l34 -43 -41 -44 c-40 -43 -40 -45 -25 -73 8 -17 19 -33 25 -36 25
-15 5 -25 -50 -25 -33 0 -60 3 -60 6 0 3 11 19 25 36 33 39 32 48 -10 88 -19
19 -35 41 -35 49 0 23 69 93 88 89 9 -2 31 -23 49 -47z m1357 9 c20 -22 36
-45 36 -51 0 -6 -16 -26 -35 -43 -40 -37 -44 -65 -15 -91 35 -32 25 -45 -35
-45 -60 0 -67 8 -35 42 29 32 25 60 -15 95 -19 17 -35 36 -35 42 0 16 70 91
85 91 7 0 29 -18 49 -40z m340 0 c20 -22 36 -46 36 -53 0 -7 -16 -27 -35 -44
-40 -36 -43 -50 -15 -86 31 -39 25 -47 -35 -47 -30 0 -55 3 -55 8 0 4 9 18 20
32 28 36 24 63 -15 99 -19 17 -35 36 -35 41 0 15 71 90 85 90 7 0 29 -18 49
-40z m-4234 10 c0 -6 -7 -21 -16 -35 -14 -21 -14 -26 0 -54 9 -17 25 -35 36
-41 11 -6 20 -17 20 -25 0 -25 -60 -85 -86 -85 -24 0 -24 0 -24 118 0 65 3
122 7 125 10 11 63 8 63 -3z m154 -21 c14 -17 26 -35 26 -41 0 -5 -16 -24 -35
-41 -39 -35 -43 -61 -15 -97 11 -14 20 -28 20 -32 0 -5 -25 -8 -55 -8 -60 0
-66 8 -35 47 28 36 25 50 -15 86 -42 37 -43 46 -9 86 19 23 34 31 59 31 25 0
40 -8 59 -31z m186 22 c0 -5 -6 -21 -14 -37 -17 -32 -8 -57 31 -87 31 -24 29
-39 -8 -82 -28 -31 -36 -35 -82 -35 -44 0 -56 5 -84 32 -41 40 -41 57 -2 92
32 28 33 41 14 104 -7 21 -6 22 69 22 42 0 76 -4 76 -9z m154 -22 c14 -17 26
-35 26 -40 0 -5 -16 -25 -35 -45 -40 -40 -42 -52 -15 -87 31 -39 25 -47 -35
-47 -60 0 -67 8 -35 42 29 32 25 60 -15 95 -19 17 -35 36 -35 41 0 6 12 24 26
41 19 23 34 31 59 31 25 0 40 -8 59 -31z m4090 0 c34 -40 33 -50 -9 -88 -42
-38 -43 -50 -10 -89 14 -17 25 -33 25 -36 0 -3 -27 -6 -60 -6 -33 0 -60 3 -60
8 0 4 9 18 20 32 28 36 25 62 -15 100 -19 19 -35 37 -35 41 0 4 13 21 29 38
39 42 80 42 115 0z m196 24 c0 -5 -7 -17 -15 -27 -24 -31 -18 -57 22 -98 l37
-38 -39 -40 c-36 -36 -44 -40 -90 -40 -48 0 -54 3 -83 39 -18 22 -32 43 -32
46 0 4 12 16 26 27 37 30 47 63 29 98 -8 16 -15 31 -15 35 0 3 36 5 80 5 44 0
80 -3 80 -7z m142 -20 c37 -35 35 -52 -7 -93 -42 -40 -43 -49 -10 -88 14 -17
25 -33 25 -36 0 -3 -27 -6 -60 -6 -33 0 -60 3 -60 8 0 4 9 18 20 32 28 36 25
62 -15 100 -19 19 -35 37 -35 41 0 4 13 21 29 38 37 39 75 41 113 4z m108 -98
c0 -111 -2 -125 -17 -125 -18 0 -93 67 -93 83 0 4 13 19 29 33 39 32 46 56 27
93 -21 40 -21 41 19 41 l35 0 0 -125z m-117 -165 l118 0 -3 -77 -3 -78 -494
-3 c-272 -1 -496 -4 -498 -6 -3 -2 -7 -24 -9 -48 -7 -56 -36 -88 -83 -88 -38
0 -81 32 -81 61 0 9 -7 22 -15 29 -12 10 -16 8 -25 -15 -5 -14 -10 -29 -10
-32 0 -22 -37 -43 -76 -43 -34 0 -47 5 -63 26 -12 15 -21 34 -21 44 0 22 -9
30 -26 23 -8 -3 -14 -14 -14 -26 0 -34 -39 -67 -79 -67 -38 0 -81 32 -81 61 0
19 -24 42 -33 32 -4 -3 -7 -14 -7 -23 0 -10 -9 -29 -21 -44 -16 -21 -29 -26
-63 -26 -55 0 -77 24 -84 90 -2 27 -8 50 -13 51 -5 0 -36 0 -69 0 -33 0 -64 0
-70 0 -5 -1 -10 -17 -10 -36 0 -42 -22 -90 -45 -99 -9 -3 -32 -6 -50 -6 -37 0
-75 37 -75 71 0 12 -7 19 -20 19 -14 0 -20 -7 -20 -22 0 -35 -38 -68 -80 -68
-39 0 -67 22 -88 73 -14 33 -27 29 -37 -10 -11 -45 -34 -63 -80 -63 -47 0 -71
19 -84 66 -9 36 -35 38 -39 4 -13 -90 -146 -94 -168 -5 -7 29 -34 34 -34 6 0
-10 -9 -30 -21 -45 -16 -21 -29 -26 -64 -26 -35 0 -48 5 -64 26 -12 15 -21 35
-21 46 0 26 -34 20 -38 -7 -7 -37 -43 -65 -82 -65 -59 0 -80 29 -93 129 -2 11
-18 14 -72 12 -38 -1 -73 -5 -77 -7 -4 -3 -8 -24 -8 -46 0 -56 -30 -88 -82
-88 -43 0 -74 24 -84 65 -7 29 -34 34 -34 6 0 -10 -11 -30 -25 -45 -34 -37
-95 -37 -124 0 -12 15 -21 35 -21 45 0 29 -29 23 -41 -8 -17 -46 -39 -63 -81
-63 -43 0 -74 24 -84 65 -7 29 -34 34 -34 6 0 -10 -11 -30 -25 -45 -18 -20
-34 -26 -64 -26 -52 0 -81 34 -81 96 l0 44 -502 2 -503 3 -3 69 c-2 38 -1 74
1 80 4 10 1038 11 4980 6z m-4823 -195 c0 -2 -14 -25 -32 -49 -28 -41 -30 -48
-19 -72 6 -15 23 -35 36 -46 34 -26 32 -37 -14 -82 -27 -26 -46 -37 -62 -34
-35 5 -68 107 -69 211 l0 77 80 0 c44 0 80 -2 80 -5z m380 -1 c0 -4 -13 -22
-30 -41 -40 -45 -38 -75 5 -120 l35 -36 -34 -41 c-32 -40 -36 -41 -101 -44
-72 -3 -86 3 -127 61 l-19 27 35 34 c20 18 36 41 36 50 0 22 -24 69 -44 85 -9
8 -16 17 -16 22 0 5 59 9 130 9 72 0 130 -3 130 -6z m310 -139 l0 -145 -62 0
c-58 0 -65 2 -100 37 -44 43 -46 55 -15 80 55 43 55 68 -1 141 l-24 32 101 0
101 0 0 -145z m128 -50 c1 -104 0 -200 -3 -212 -4 -19 -12 -23 -45 -23 l-40 0
0 216 0 215 43 -3 42 -3 3 -190z m940 -17 l-3 -213 -42 -3 -43 -3 0 215 0 216
45 0 45 0 -2 -212z m1360 17 c4 -237 4 -237 -51 -233 l-42 3 -3 200 c-1 110 0
205 3 213 3 9 19 12 47 10 l43 -3 3 -190z m940 0 c3 -235 3 -237 -46 -233
l-37 3 -3 213 -2 213 42 -3 43 -3 3 -190z m232 189 c0 -4 -13 -22 -30 -41 -41
-46 -39 -80 5 -123 l35 -34 -42 -43 c-42 -43 -44 -44 -103 -41 l-60 3 -3 143
-3 142 101 0 c55 0 100 -3 100 -6z m370 -1 c0 -5 -14 -26 -30 -47 -39 -51 -38
-67 5 -107 19 -19 35 -38 35 -43 0 -6 -17 -27 -37 -48 -35 -36 -41 -38 -97
-38 -56 0 -63 3 -98 37 -21 20 -38 42 -38 48 0 6 14 24 30 40 18 17 30 39 30
54 0 25 -38 91 -52 91 -5 0 -8 5 -8 10 0 6 50 10 130 10 72 0 130 -3 130 -7z
m280 -138 l0 -145 -49 0 c-44 0 -52 4 -85 40 -20 22 -36 42 -36 43 0 2 16 20
35 40 43 44 44 72 5 117 -16 19 -29 38 -30 43 0 4 36 7 80 7 l80 0 0 -145z
m-4831 89 c23 -26 41 -50 41 -54 0 -5 -16 -22 -35 -39 -42 -36 -45 -68 -10
-101 13 -12 22 -27 19 -31 -5 -10 -124 -13 -124 -4 0 3 12 23 26 44 29 44 24
65 -21 95 -14 9 -25 25 -25 36 0 20 65 100 80 100 5 0 27 -21 49 -46z m375 4
c20 -23 36 -47 36 -54 0 -8 -16 -29 -35 -48 -19 -20 -35 -41 -35 -47 0 -7 11
-27 25 -45 14 -18 25 -35 25 -38 0 -10 -118 -7 -124 3 -3 4 6 19 19 31 34 32
31 60 -10 100 -19 19 -35 38 -35 42 0 11 80 98 90 98 5 0 25 -19 44 -42z
m3875 33 c10 -6 30 -28 46 -51 l28 -41 -36 -37 c-44 -45 -45 -60 -12 -100 14
-17 25 -33 25 -36 0 -3 -29 -6 -65 -6 -36 0 -65 3 -65 6 0 3 11 19 25 36 33
40 32 58 -10 98 -19 19 -35 38 -35 43 0 9 69 93 78 96 2 1 11 -3 21 -8z m403
-28 c21 -20 38 -46 38 -58 0 -11 -16 -35 -35 -54 -19 -18 -35 -36 -35 -40 0
-4 11 -22 25 -41 14 -19 25 -38 25 -42 0 -4 -27 -8 -60 -8 -33 0 -60 3 -60 6
0 3 11 20 25 38 33 44 32 60 -10 92 -19 14 -35 34 -35 43 0 17 65 101 78 101
3 0 23 -17 44 -37z m-3712 -62 c0 -5 16 -16 36 -26 43 -20 98 -13 131 17 l22
20 26 -20 c14 -11 39 -24 55 -27 36 -8 96 10 109 32 7 14 13 13 42 -8 34 -24
82 -30 132 -15 l28 8 -3 -148 -3 -149 -80 0 -80 0 -3 123 c-2 98 -5 122 -17
122 -12 0 -15 -24 -17 -122 l-3 -123 -80 0 -80 0 -5 120 c-4 98 -8 120 -20
120 -12 0 -16 -22 -20 -120 l-5 -120 -80 0 -80 0 -3 123 c-2 98 -5 122 -17
122 -12 0 -15 -24 -17 -122 l-3 -123 -80 0 -80 0 -3 140 c-1 76 0 145 2 152 4
9 12 8 36 -4 37 -18 88 -11 122 17 25 21 38 25 38 11z m961 -13 c42 -31 107
-31 149 0 l32 24 25 -24 c35 -32 112 -32 148 2 23 21 26 22 42 7 47 -42 120
-45 162 -6 l23 21 31 -23 c44 -33 116 -33 150 -1 l25 24 31 -23 c33 -24 84
-30 134 -15 l28 8 -3 -148 -3 -149 -82 -3 -83 -3 0 126 c0 115 -2 126 -17 123
-16 -3 -18 -18 -21 -126 l-3 -122 -78 0 c-63 0 -80 3 -85 16 -3 9 -6 65 -6
125 0 89 -3 109 -15 109 -12 0 -15 -23 -17 -122 l-3 -123 -77 -3 c-92 -3 -87
-12 -91 148 -2 86 -5 105 -17 105 -12 0 -16 -23 -20 -125 l-5 -125 -80 0 -80
0 -3 123 c-2 98 -5 122 -17 122 -12 0 -15 -24 -17 -122 l-3 -123 -80 0 -80 0
-3 123 c-2 98 -5 122 -17 122 -12 0 -15 -24 -17 -122 l-3 -123 -79 -3 c-57 -2
-82 1 -87 10 -5 7 -9 75 -9 152 l0 138 28 -8 c52 -16 110 -10 134 14 12 12 24
22 26 22 1 0 17 -10 33 -22z m1389 -19 c34 -14 88 -4 116 22 l22 21 32 -24
c43 -31 104 -31 148 1 l33 23 23 -21 c31 -29 86 -37 125 -18 16 8 32 12 35 9
8 -7 8 -266 0 -286 -9 -23 -159 -23 -168 0 -3 9 -6 65 -6 125 0 89 -3 109 -15
109 -12 0 -15 -23 -17 -122 l-3 -123 -80 0 -80 0 -3 123 c-2 110 -4 123 -20
120 -15 -3 -17 -19 -20 -126 l-3 -122 -79 0 -79 0 -3 122 c-3 108 -5 123 -20
126 -16 3 -18 -8 -18 -123 l0 -126 -82 3 -83 3 -3 149 -3 148 28 -8 c49 -14
101 -9 130 13 25 19 30 20 48 7 11 -8 31 -19 45 -25z m-2710 -293 l0 -114 -87
-26 c-49 -15 -160 -50 -248 -78 -232 -73 -278 -87 -299 -90 -16 -2 -23 8 -37
47 -34 101 -119 364 -119 369 0 4 178 6 395 6 l395 0 0 -114z m4250 -581 l0
-695 -390 -2 c-249 -2 -391 -7 -393 -13 -1 -6 135 -12 388 -15 l390 -5 3 -37
3 -38 -390 0 c-365 0 -421 -4 -398 -26 2 -3 173 -5 379 -4 207 0 383 -2 392
-6 15 -6 16 -78 16 -850 l0 -844 -95 0 -95 0 0 570 c0 383 -4 586 -11 622 -16
74 -45 131 -94 186 -61 67 -95 121 -95 148 0 40 -27 27 -39 -18 -7 -29 -31
-66 -71 -111 -33 -38 -68 -87 -79 -110 -10 -23 -22 -51 -27 -62 -5 -11 -11
-290 -14 -620 l-5 -600 -110 0 -110 0 -2 910 -3 910 50 85 c55 95 53 110 -11
110 l-39 0 2 353 3 352 388 3 c460 3 468 5 240 77 -359 113 -531 168 -578 184
l-50 17 -3 99 c-1 54 0 105 2 112 4 10 87 13 426 13 l420 0 0 -695z m-5091
491 c225 -689 340 -1259 341 -1688 0 -418 -111 -701 -315 -797 -82 -38 -75
-98 -77 631 -2 510 -6 652 -15 656 -10 3 -13 -131 -13 -647 0 -737 7 -682 -83
-640 -116 54 -219 202 -267 384 -26 99 -50 292 -50 405 0 196 45 546 109 850
9 43 93 373 111 435 36 129 55 191 79 265 15 47 45 140 67 207 33 103 41 120
51 107 7 -9 34 -85 62 -168z m4207 39 c15 -59 148 -55 -1666 -55 l-1660 0 0
39 0 39 1660 1 1660 1 6 -25z m170 -139 c77 -24 213 -68 304 -96 91 -29 169
-56 175 -61 5 -5 -963 -9 -2315 -9 -1512 0 -2320 4 -2310 10 8 5 87 33 175 60
88 28 221 71 295 95 l135 43 1701 1 1702 1 138 -44z m-3538 -553 l2 -353 -40
0 c-27 0 -43 -5 -46 -15 -4 -8 15 -52 40 -96 l46 -82 0 -914 0 -914 -112 3
-113 3 -5 605 -5 605 -24 54 c-14 30 -48 83 -78 118 -56 69 -59 78 -67 214 -5
76 -4 88 11 93 9 4 82 6 162 6 185 -1 173 -2 169 13 -4 9 -52 13 -179 17
l-174 5 0 35 0 35 178 3 c148 2 177 5 177 17 0 13 -28 15 -184 15 l-185 0 -10
58 c-6 31 -16 79 -21 105 -6 27 -10 53 -10 57 0 5 44 11 98 12 l97 3 0 190 0
190 -142 3 -142 3 -12 42 c-6 23 -22 79 -35 123 -13 45 -24 87 -24 93 0 8 87
11 313 9 l312 -3 3 -352z m166 348 c3 -4 6 -163 6 -352 l1 -344 -65 -3 -66 -3
0 356 0 355 59 0 c33 0 62 -4 65 -9z m724 -348 l2 -353 -30 0 c-27 0 -30 3
-30 29 0 56 -30 176 -60 237 -16 33 -59 94 -96 135 -86 97 -93 108 -102 160
-10 59 -34 59 -44 0 -8 -46 -28 -77 -115 -174 -29 -33 -66 -87 -83 -121 -30
-61 -60 -181 -60 -237 0 -26 -3 -29 -30 -29 l-30 0 0 348 c0 192 3 352 7 355
4 4 155 6 337 5 l331 -3 3 -352z m172 2 l0 -355 -65 0 -65 0 0 348 c0 192 3
352 7 355 3 4 33 7 65 7 l58 0 0 -355z m1248 -2 l2 -353 -35 0 c-33 0 -35 2
-35 34 0 52 -33 147 -69 200 -44 63 -114 117 -219 166 -157 75 -171 83 -196
109 -13 14 -28 42 -33 61 -12 44 -35 45 -44 2 -11 -54 -52 -86 -203 -160 -80
-40 -162 -88 -189 -112 -58 -51 -112 -159 -122 -242 -7 -56 -9 -58 -36 -58
l-29 0 0 355 0 355 603 -2 602 -3 3 -352z m162 347 c0 -5 0 -164 0 -352 l1
-343 -66 -3 -65 -3 0 349 c0 192 3 352 7 355 10 11 123 8 123 -3z m720 -345
l0 -355 -29 0 c-28 0 -28 1 -35 76 -12 131 -52 215 -164 343 -67 78 -92 122
-92 166 0 20 -4 26 -17 23 -13 -2 -20 -16 -23 -44 -7 -49 -24 -77 -95 -154
-101 -109 -143 -200 -154 -330 l-6 -75 -32 -3 -33 -3 0 349 c0 192 3 352 7
355 3 4 156 7 340 7 l333 0 0 -355z m169 341 c8 -9 11 -110 9 -352 l-3 -339
-67 -3 -68 -3 0 349 c0 192 3 352 7 355 12 13 110 7 122 -7z m-1621 -217 c19
-17 94 -60 167 -94 209 -101 284 -188 300 -350 6 -58 16 -85 56 -156 l49 -87
-2 -903 -3 -904 -102 -3 -103 -3 0 587 0 586 -67 69 -66 69 -266 0 -265 0 -63
-62 -63 -62 0 -577 c0 -318 -3 -584 -6 -593 -5 -13 -24 -16 -105 -16 l-99 0 0
914 0 914 42 74 c31 55 45 93 55 155 31 193 88 250 394 392 25 12 59 35 74 51
16 17 31 30 33 30 2 0 20 -14 40 -31z m-1178 11 c0 -5 36 -50 79 -100 110
-127 151 -223 151 -355 0 -34 4 -65 9 -71 4 -5 27 -44 50 -86 l41 -77 -2 -908
-3 -908 -57 -3 -58 -3 0 592 0 592 -63 64 -64 63 -93 0 -93 0 -68 -67 -69 -68
0 -588 0 -588 -52 3 -53 3 -3 908 -2 908 44 82 c38 71 46 95 55 177 12 97 38
181 75 235 11 17 51 66 88 109 37 43 68 83 68 87 0 5 5 9 10 9 6 0 10 -4 10
-10z m2394 -114 c38 -44 80 -103 93 -132 25 -55 53 -182 53 -241 0 -23 15 -62
45 -115 l45 -80 0 -915 0 -914 -57 3 -58 3 -3 590 -2 590 -62 62 -62 63 -91 0
-90 0 -67 -66 -68 -66 0 -590 0 -589 -57 3 -58 3 -3 907 -2 908 50 88 c42 74
50 96 50 140 0 125 48 243 138 343 32 35 69 79 82 98 l24 34 15 -23 c9 -13 47
-60 85 -104z m-3256 -133 l3 -153 -91 0 c-85 0 -90 1 -94 23 -3 12 -18 79 -34
149 -16 70 -26 130 -23 133 3 3 57 4 120 3 l116 -3 3 -152z m552 -290 c0 -3
-16 -35 -35 -70 l-36 -63 -74 0 -73 0 -36 64 c-20 35 -36 67 -36 70 0 3 65 6
145 6 80 0 145 -3 145 -7z m890 1 c0 -3 -16 -35 -36 -70 l-36 -64 -73 0 -74 0
-36 63 c-19 35 -35 67 -35 70 0 4 65 7 145 7 80 0 145 -3 145 -6z m1389 -51
c-48 -86 -44 -83 -123 -83 l-72 0 -37 65 c-20 35 -37 67 -37 70 0 3 68 5 151
5 l150 0 -32 -57z m911 48 c0 -5 -15 -35 -33 -67 l-33 -59 -69 -3 c-39 -1 -75
1 -81 5 -11 8 -74 116 -74 127 0 3 65 6 145 6 80 0 145 -4 145 -9z m-3272
-1068 l2 -903 -65 0 -65 0 0 898 c0 494 3 902 7 906 4 4 32 6 63 4 l55 -3 3
-902z m890 0 l2 -903 -65 0 -65 0 0 898 c0 494 3 902 7 906 4 4 32 6 63 4 l55
-3 3 -902z m1408 898 c5 -6 8 -350 6 -906 l-2 -896 -63 3 -62 3 -3 890 c-1
490 0 896 3 903 5 14 106 17 121 3z m892 -3 c9 -9 12 -220 12 -889 0 -483 -3
-884 -6 -893 -5 -12 -21 -16 -70 -16 l-64 0 0 898 c0 494 3 902 7 905 11 12
108 8 121 -5z m537 -400 c134 -171 125 -110 125 -810 l0 -588 -177 2 -178 3
-3 545 c-3 561 1 633 37 716 18 40 135 185 149 183 4 0 25 -23 47 -51z m-4231
-67 c74 -100 71 -68 71 -731 l0 -595 -177 -3 -178 -2 0 271 0 272 39 51 c112
147 174 357 187 639 4 81 10 147 15 147 4 0 23 -22 43 -49z m1023 -114 l53
-55 0 -565 c0 -311 -3 -572 -6 -581 -5 -14 -31 -16 -184 -16 -153 0 -179 2
-184 16 -3 9 -6 270 -6 581 l0 566 58 56 57 56 80 -2 79 -1 53 -55z m1329 1
l44 -47 -2 -583 -3 -583 -355 0 -355 0 -3 580 -2 579 55 56 54 55 261 -5 261
-5 45 -47z m973 -2 l51 -55 -2 -578 -3 -578 -182 -3 -183 -2 0 584 0 585 51
50 52 51 82 0 82 0 52 -54z m-3649 -966 l0 -251 -92 3 -93 3 0 204 0 203 45
17 c25 10 63 29 85 44 22 14 43 26 48 26 4 1 7 -112 7 -249z"/>
<path d="M7615 4558 c-3 -13 -4 -99 -3 -193 l3 -170 161 -3 c161 -2 162 -2
168 20 11 44 7 343 -6 356 -8 8 -59 12 -165 12 -150 0 -153 0 -158 -22z m295
-173 l0 -155 -130 0 -130 0 0 155 0 155 130 0 130 0 0 -155z"/>
<path d="M5564 4333 c-6 -5 -15 -24 -19 -43 -12 -57 -55 -181 -82 -235 -14
-27 -43 -69 -65 -92 l-41 -42 28 -46 c30 -52 90 -99 167 -130 49 -20 60 -30
72 -67 8 -28 24 -21 40 15 10 26 24 37 62 52 95 36 156 87 183 153 12 29 11
32 -22 62 -19 17 -49 60 -67 96 -27 57 -43 102 -89 254 -7 23 -12 25 -82 28
-41 1 -79 -1 -85 -5z m147 -75 c24 -92 52 -166 90 -236 21 -41 39 -75 39 -78
0 -2 -90 -4 -200 -4 -110 0 -200 2 -200 4 0 3 16 31 35 62 19 32 51 111 72
176 l38 118 57 0 57 0 12 -42z m155 -359 c19 -31 -208 -175 -239 -151 -7 5
-43 21 -80 37 -68 28 -144 95 -132 115 9 14 442 13 451 -1z"/>
<path d="M4210 3945 c0 -13 37 -15 281 -15 220 0 280 3 277 13 -4 9 -71 13
-281 15 -242 2 -277 0 -277 -13z"/>
<path d="M4217 3843 c-4 -3 -7 -10 -7 -15 0 -4 126 -8 281 -8 220 0 280 3 277
13 -4 9 -69 13 -275 15 -148 1 -272 -1 -276 -5z"/>
<path d="M6520 3945 c0 -13 37 -15 275 -15 238 0 275 2 275 15 0 13 -37 15
-275 15 -238 0 -275 -2 -275 -15z"/>
<path d="M6522 3835 c3 -14 37 -16 266 -16 144 1 267 1 272 1 6 0 10 7 10 15
0 13 -37 15 -276 15 -243 0 -275 -2 -272 -15z"/>
</g>
</svg>
