<svg xmlns="http://www.w3.org/2000/svg" width="100%" viewBox="0 0 375 375" height="150" xmlns:v="https://vecta.io/nano"><path fill="#47704c" d="M210 376H1.035V1.097H375.84V376H210M101.387 218.73c.961.622 1.844 1.469 2.894 1.83 11.235 3.855 22.323 8.301 33.79 11.284 19.96 5.193 40.207 9.274 60.227 14.249 6.209 1.543 13.124 2.336 17.654 8.651-1.536 1.082-2.845 2.637-4.435 3.015-6.757 1.604-13.549 3.673-20.417 4.079-16.785.993-33.275-1.794-49.479-6.004-16.181-4.204-32.082-9.269-46.807-17.435l-17.43-9.667-12.316 27.202-15.756 35.421c-4.114 9.323-7.827 18.842-12.402 27.931-1.574 3.127-.846 4.724 1.25 6.197 2.928 2.058 6.174 3.661 9.276 5.473 15.572 9.095 32.19 15.735 49.69 19.824 13.987 3.268 28.156 5.898 42.359 8.059 10.918 1.661 22.008 2.899 33.031 2.976 14.301.1 28.7-.382 42.893-2.023 12.967-1.5 26.033-3.847 38.487-7.672 18.218-5.595 35.073-14.224 49.718-26.95 19.553-16.991 31.717-37.911 35.269-63.568.822-5.936-.602-12.194.306-18.104 1.324-8.615-.668-16.572-2.04-25.064l5.412-.875v-46.639c-13.853 0-27.27 0-41-.595-14.291-9.693-30.209-16.122-46.538-20.962-15.744-4.666-32.145-7.069-48.152-10.909-11.9-2.855-23.655-6.336-35.405-9.774-1.409-.412-3.421-2.395-3.327-3.493.153-1.794 1.418-4.365 2.906-5.008 4.198-1.813 8.677-3.598 13.169-4 22.292-1.992 44.083 1.213 65.042 8.72 12.28 4.398 24.055 10.242 35.927 15.718 3.748 1.729 5.371 1.291 7-2.738l25.19-60.753 12.356-29.794c-14.006-6.256-27.183-12.916-40.935-18.024-10.007-3.717-20.668-6.013-31.23-7.809-14.15-2.406-28.444-4.49-42.755-5.273-13.307-.728-26.716.471-40.081.747-12.703.262-25.224 1.939-37.365 5.609-9.944 3.006-20.005 5.992-29.432 10.269C87.74 42.009 70.63 55.404 58.948 74.488c-5.064 8.272-9.11 17.476-11.875 26.775-4.134 13.904-5.149 28.3-3.188 42.907 1.248 9.302 3.398 18.237 5.899 26.928-3.632-.093-2.733 2.672-2.746 4.613L47 208.184v9.898l54.387.648z"/><path fill="#ee2725" d="M50.725 171.084c-3.442-8.677-5.592-17.613-6.84-26.914-1.96-14.606-.946-29.002 3.188-42.907 2.765-9.299 6.811-18.503 11.875-26.775C70.63 55.404 87.74 42.009 107.929 32.85c9.427-4.277 19.488-7.263 29.432-10.269 12.141-3.67 24.662-5.347 37.365-5.609 13.366-.276 26.775-1.475 40.081-.747 14.311.783 28.605 2.867 42.755 5.273 10.562 1.796 21.224 4.092 31.23 7.809 13.753 5.108 26.929 11.768 40.935 18.024l-12.356 29.794-25.19 60.753c-1.629 4.029-3.252 4.468-7 2.738-11.872-5.477-23.647-11.321-35.927-15.718-20.959-7.506-42.75-10.712-65.042-8.72-4.493.402-8.972 2.187-13.169 4-1.488.643-2.753 3.214-2.906 5.008-.094 1.099 1.918 3.081 3.327 3.493 11.75 3.438 23.505 6.919 35.405 9.774 16.006 3.84 32.408 6.242 48.152 10.909 16.329 4.84 32.247 11.269 46.236 21.3l-60.738.34-189.795.083z"/><path fill="#ee2726" d="M336.396 218.852c2.125 8.073 4.117 16.029 2.793 24.644-.908 5.91.516 12.168-.306 18.104-3.552 25.658-15.716 46.577-35.269 63.568-14.644 12.726-31.5 21.355-49.718 26.95-12.454 3.825-25.52 6.173-38.487 7.672-14.193 1.641-28.592 2.123-42.893 2.023-11.023-.077-22.114-1.315-33.031-2.976-14.203-2.161-28.372-4.791-42.359-8.059-17.5-4.089-34.118-10.729-49.69-19.824-3.102-1.812-6.348-3.415-9.276-5.473-2.095-1.473-2.824-3.071-1.25-6.197 4.575-9.088 8.288-18.608 12.402-27.931l15.756-35.421 12.316-27.202 17.43 9.667c14.725 8.166 30.626 13.231 46.807 17.435 16.204 4.21 32.694 6.997 49.479 6.004 6.868-.406 13.66-2.475 20.417-4.079 1.589-.377 2.899-1.933 4.435-3.015-4.531-6.314-11.445-7.108-17.654-8.651l-60.227-14.249c-11.467-2.983-22.555-7.429-33.79-11.284-1.05-.36-1.933-1.208-2.566-2.194l228.937-.329c1.915.001 3.829.532 5.743.816z"/><path fill="#020202" d="M336.772 218.642c-2.291-.074-4.205-.605-6.12-.606-76.203-.042-152.406-.036-229.067.005L47 218.082v-9.898l.038-32.474c.013-1.941-.886-4.706 3.217-4.62l190.265-.09 60.894-.042 41.147-.04v46.639c-1.887.305-3.649.59-5.789 1.085z"/></svg>